<svg width="797" height="716" viewBox="0 0 797 716" fill="none" xmlns="http://www.w3.org/2000/svg">
<path d="M301.453 269.583L619.663 26.6888L767.09 280.227L448.88 523.121L301.453 269.583Z" fill="#42C4DE"/>
<path d="M301.453 269.582L619.663 26.688L577.341 293.632L301.453 269.582Z" fill="#EFEFEF"/>
<path d="M301.453 269.582L619.663 26.688L553.879 262.896L301.453 269.582Z" fill="#081236"/>
<path d="M241.836 371.696L283.959 444.592L343.388 361.346L241.836 371.696Z" fill="#8EDCEB" fill-opacity="0.6"/>
<path opacity="0.2" d="M228.211 551.81L270.334 624.706L329.763 541.461L228.211 551.81Z" fill="#8EDCEB"/>
<path opacity="0.2" d="M100.898 559.967L143.021 632.863L202.451 549.618L100.898 559.967Z" fill="#8EDCEB"/>
<path opacity="0.4" d="M233.687 376.403L275.81 449.3L174.01 459.22L233.687 376.403Z" fill="#8EDCEB"/>
<path d="M348.465 370.136L390.588 443.032L288.788 452.953L348.465 370.136Z" fill="#8EDCEB" fill-opacity="0.6"/>
<path opacity="0.4" d="M281.31 459.466L323.433 532.362L221.633 542.283L281.31 459.466Z" fill="#8EDCEB"/>
<path d="M397.739 454.057L439.862 526.953L338.062 536.874L397.739 454.057Z" fill="#8EDCEB" fill-opacity="0.4"/>
<path d="M296.737 280.616L338.86 353.513L237.059 363.433L296.737 280.616Z" fill="#8EDCEB" fill-opacity="0.2"/>
</svg>
