<svg width="549" height="321" viewBox="0 0 549 321" fill="none" xmlns="http://www.w3.org/2000/svg">
<g clip-path="url(#clip0_752:4045)">
<path d="M337.426 182.821L339.895 184.503L340.627 184.467L346.759 182.361L347.455 184.605L346.964 186.499L345.638 187.551L342.327 187.34L337.588 184.43L337.426 182.821Z" fill="#66B3FF"/>
<path d="M348.48 158.562L349.008 160.667L354.975 161.193L355.392 156.874L356.543 156.246L356.857 154.666L354.975 155.193L352.881 158.357L348.48 158.562Z" fill="#66B3FF"/>
<path d="M360.652 135.637L361.614 143.176L364.011 143.702L364.235 145.058L362.516 146.492L365.718 149.076L371.939 146.837L372.436 144.187L376.352 141.744L377.854 136.081L378.973 134.876L377.812 132.855L381.601 130.512L381.117 129.835L379.368 129.943L379.21 131.552L376.862 131.529L376.818 129.382L376.063 128.48L374.792 129.635L374.828 130.695L372.91 131.42L369.368 131.197L364.769 136.013L360.652 135.637Z" fill="#66B3FF"/>
<path d="M294.017 125.178V127.966L294.816 129.472L295.39 129.405L296.377 127.609L295.802 126.804L295.579 124.814L294.816 124.105L294.017 125.178Z" fill="#66B3FF"/>
<path d="M333.781 125.256L336.686 129.043L335.833 130.042L333.776 129.685L331.223 127.398L331.36 125.896L333.781 125.256Z" fill="#66B3FF"/>
<path d="M284.695 214.083L286.759 221.784L286.711 224.218L283.691 227.461L283.238 232.729L294.859 232.832L298.636 234.2L301.752 233.794L299.936 231.518L299.943 225.022L303.514 224.87V222.335L300.614 222.215L300.034 216.213L298.811 216.23L298.151 215.636L297.432 215.674L296.476 217.526H292.797L291.943 216.667L292.197 215.451L291.191 213.98L284.695 214.083Z" fill="#66B3FF"/>
<path d="M283.441 211.977L284.494 213.344L285.856 212.055L285.456 210.719L285.118 210.694L283.441 211.977Z" fill="#66B3FF"/>
<path d="M173.845 251.285L175.02 252.384L170.559 259.011L168.991 260.746L169.535 268.314L172.979 272.495L170.085 277.541L167.894 278.486H165.389L166.091 282.424L162.175 283.768L163.113 287.078L160.765 294.568L163.664 296.933L162.096 300.793L159.433 304.975L160.843 307.891L157.399 308.441L154.579 304.975L154.107 294.174L149.725 275.83L151.051 269.417L148.23 261.219L150.107 250.577L151.832 248.526L151.408 246.971L153.623 244.949L158.562 245.287L161.323 248.234L164.512 248.289L167.78 250.285L166.818 252.537L167.048 254.812L171.678 254.593L173.845 251.285Z" fill="#66B3FF"/>
<path d="M163.828 312.143L163.986 315.608L166.648 315.372L168.918 313.871L165.081 313.085L163.828 312.143Z" fill="#66B3FF"/>
<path d="M279.858 113.294L279.465 114.111L279.803 114.692L281.214 114.402H282.412L283.712 115.502L286.478 115L288.511 113.79L289.031 112.973L288.953 111.92L287.125 110.553L284.674 110.577L284.468 111.969L281.889 113.226L279.858 113.294Z" fill="#66B3FF"/>
<path d="M449.656 257.202L449.444 272.557L447.083 274.287L446.871 275.8L450.091 277.96L458.038 276.447H462.117L463.619 274.281L472.637 272.551L479.077 274.499L478.647 277.094L479.507 279.69L484.447 278.825L484.659 280.12L481.439 282.497L482.51 283.362L484.869 282.497L484.227 289.636L488.737 293.097L491.315 292.232L492.604 293.528L500.121 292.444L507.209 280.979L509.787 280.332L514.938 270.816L516.227 262.599L513.007 258.491L514.297 257.626L511.717 249.622L508.928 247.674L509.358 236.862L506.778 234.915L506.137 228.859H504.847L500.549 243.132L498.19 243.35L492.821 237.941L495.83 229.936L490.248 228.854L484.019 230.584L482.301 235.556L479.512 236.203L479.299 232.743L467.919 239.664L468.132 242.26L466.414 244.637H462.116L452.88 248.529L449.656 257.202Z" fill="#66B3FF"/>
<path d="M488.736 298.513L487.664 302.839L487.877 305.864L491.097 305.646L494.747 300.025L488.736 298.513Z" fill="#66B3FF"/>
<path d="M334.803 123.943L334.191 124.983L337.042 128.722L338.035 128.402L339.669 130.114L340.377 127.113L342.15 127.397L342.078 126.537L339.161 123.985L338.605 125.485L334.803 123.943Z" fill="#66B3FF"/>
<path d="M288.434 118.631L288.211 119L292.273 123.186L293.762 120.995L293.707 120.132L292.407 118.553L288.434 118.631Z" fill="#66B3FF"/>
<path d="M409.951 151.403L409.157 152.837L411.214 156.746L411.275 159.795L411.65 160.611L414.065 160.654L415.432 159.342L416.425 159.94L416.625 161.796L417.418 161.301L417.466 158.929L416.8 158.85L416.383 156.835L414.701 156.775L414.283 155.655L415.312 154.282L415.329 153.603H412.34L409.951 151.403Z" fill="#66B3FF"/>
<path d="M268.349 105.066L267.961 106.034L272.125 108.782L272.405 108.817L272.668 108.052L273.254 107.64L272.318 106.591H271.677L270.798 105.593L268.349 105.066Z" fill="#66B3FF"/>
<path d="M261.678 176.312L263.88 176.137L267.493 181.243L264.14 183.771L261.713 183.147L258.451 183.191L257.924 185.101L255.188 185.234L254.438 184.212L255.408 181.103L261.678 176.312Z" fill="#66B3FF"/>
<path d="M298.507 120.718L298.604 123.731L299.621 125.848L303.44 125.915L305.159 124.699L306.848 124.028L306.436 122.103L306.817 121.075L305.958 120.626L304.776 120.723L303.85 121.656L299.965 121.686L298.507 120.718Z" fill="#66B3FF"/>
<path d="M313.501 207.73L316.085 207.676L315.413 209.938L314.759 210.506H313.959L313.391 208.976L313.501 207.73Z" fill="#66B3FF"/>
<path d="M266.591 191.564H267.874L267.947 187.922L269.568 185.568L269.495 181.472L268.023 181.436L265.5 183.407L266.553 185.415L266.591 191.564Z" fill="#66B3FF"/>
<path d="M460.911 191.42L459.168 193.532L460.596 193.981L461.401 192.855L460.911 191.42Z" fill="#66B3FF"/>
<path d="M145.543 223.812L150.525 221.64L152.171 221.798L153.267 226.371L160.856 228.894L162.109 232.759L165.238 233.153L166.57 236.462L165.632 239.457L160.541 239.85L158.665 244.66L154.67 244.581L153.417 244.346L151.111 246.583L149.974 246.474L146.057 237.405L147.141 235.784L147.522 229.371L146.554 225.553L145.543 223.812Z" fill="#66B3FF"/>
<path d="M179.152 263.779L182.935 256.507L183.073 250.396L190.13 245.846H194.083L197.188 240.588L197.751 230.497L196.48 227.799L203.961 220.974L204.245 213.442L194.083 208.469L181.809 204.634L176.022 204.065L177.577 200.798L177.155 195.825L175.889 195.408L174.018 199.123L173.038 200.351L170.521 199.238L162.054 202.22L159.233 198.67L159.687 194.961L157.024 197.671L154.082 196.086L153.785 196.504L153.791 197.792L156.328 199.153L152.521 203.164L150.118 203.14L147.684 200.666L144.931 200.751L144.592 203.69L146.171 205.607L144.307 211.579L142.128 211.748L138.66 213.938L137.812 218.24L140.821 221.459L141.372 220.836L143.484 220.268L145.288 223.305L150.451 221.091L152.454 221.206L153.834 226.089L161.2 228.425L162.471 232.319L165.606 232.695L167.101 236.414L166.091 239.724L167.41 241.456L167.217 244.033L170.751 243.699L173.99 247.79L173.736 250.663L175.654 252.284L171.054 259.248L179.152 263.779Z" fill="#66B3FF"/>
<path d="M133.983 155.045L133.221 154.81L133.161 156.28L134.099 157.224L134.741 156.28L133.983 155.045Z" fill="#66B3FF"/>
<path d="M135.502 157.345L134.449 157.931L135.441 159.346L135.968 158.638L135.502 157.345Z" fill="#66B3FF"/>
<path d="M138.9 158.404L137.786 158.343L137.901 159.051L138.718 160.232L139.42 159.463L138.9 158.404Z" fill="#66B3FF"/>
<path d="M138.37 156.993L136.554 156.224L136.204 154.398L136.905 154.101L137.607 155.517L138.309 156.048L138.37 156.993Z" fill="#66B3FF"/>
<path d="M136.614 153.279L135.676 153.043L135.5 151.863L134.508 151.512L135.15 150.864L136.318 151.276L137.196 151.809L136.614 153.279Z" fill="#66B3FF"/>
<path d="M409.848 148.361L410.786 149.644L413.956 149.668L413.636 147.913L409.848 148.361Z" fill="#66B3FF"/>
<path d="M296.734 247.069L298.035 247.468L297.853 251.187L299.191 251.369L302.265 248.598L305.957 248.997L306.937 246.516L311.609 242.25L305.999 235.794L305.926 234.735L305.308 234.553L303.606 236.121L299.188 236.228L298.569 241.734L296.833 242.133L296.734 247.069Z" fill="#66B3FF"/>
<path d="M298.035 98.877L298.943 100.371L298.58 101.563L298.64 102.507L298.973 103.639L300.85 102.574L303.181 102.634L304.815 103.305H308.962L310.172 100.407L310.898 99.3123V98.5809L308.296 94.9204L305.996 94.007L304.119 93.7949L302.484 94.3149L302.546 95.9605L300.276 98.8287L298.035 98.877Z" fill="#66B3FF"/>
<path d="M112.769 169.125L112.739 171.333H113.247L114.978 168.103H113.804L112.769 169.125Z" fill="#66B3FF"/>
<path d="M84.7228 27.7109L85.9271 29.5321L86.532 31.9643L89.5464 32.7209L91.6588 30.4462L93.4688 31.3603L98.5949 31.8131L102.214 30.2943L102.819 35.3036H104.932V33.1801L107.044 33.3313L112.322 39.557L115.79 41.6812L113.981 44.567L114.738 45.3236L121.511 46.6905L121.662 49.7282L123.472 50.0312L123.925 45.4748L126.789 44.7189L128.901 47.9077L133.422 50.0312L135.686 50.4841L137.193 48.6629L137.344 45.7765L140.056 44.1057L140.958 46.5387L138.543 50.792L138.845 52.9149L140.201 50.792L142.913 48.3598L143.064 45.171L141.558 42.7381L142.011 40.7664L145.631 38.9446L147.289 40.161L147.592 50.7913L150.152 48.5166L151.659 49.43L149.547 53.0724L152.259 53.6778L156.181 47.6032L159.498 51.093L158.142 57.3188L154.825 59.1406L151.66 57.6225L145.934 58.8376L146.539 60.8099L145.033 63.2428L140.36 64.3074L135.082 68.4089L130.41 74.6353L129.805 76.607L132.971 77.8228L134.175 80.8597L138.545 85.2643L145.481 88.3012L143.974 95.2828L143.823 97.2552L145.633 98.4703L148.048 95.2821L148.35 89.2076L152.121 89.0564L153.93 85.5652L154.233 80.2536L159.057 70.8397L165.085 72.9632L168.25 77.3678L166.894 81.7717L169.309 83.1393L175.186 79.1876L176.844 89.9691L182.273 96.4972L182.425 99.8365L176.397 101.355L173.534 104.392L167.506 103.025L164.492 102.873L159.214 106.974L162.38 106.218L166.301 105.462L167.058 106.375L166.005 109.714L166.157 112.752L167.967 113.967L169.776 113.514L170.683 112.147H171.888L169.926 115.79L166.156 115.94L164.498 118.373H162.385L161.78 116.551L164.795 113.515L161.175 114.731L161.012 109.57L159.971 108.965L156.806 110.332L156.503 112.916H149.265L143.08 117.171L134.789 119.907L133.887 118.69L138.063 112.459L135.691 110.177L134.184 107.285L131.115 104.943L127.823 104.671L121.922 100.539L79.1248 93.5093L78.4169 90.6102L74.4944 86.9679V83.9309L75.1001 81.1964L74.7969 79.6789L73.2901 78.1594L72.9877 75.7272L76.9101 72.992L74.4952 59.9364L71.1784 59.7845L68.1641 55.8335L84.7228 27.7109Z" fill="#66B3FF"/>
<path d="M69.959 75.959L68.9297 77.9313L69.2868 79.3284L69.9583 79.7469L69.8007 80.3152L69.0802 80.521L69.2861 82.5963L70.0605 83.3767L70.6781 82.7055L69.9036 80.6848L70.3637 79.0757L71.4952 77.5695L70.6725 76.1717L69.959 75.959Z" fill="#66B3FF"/>
<path d="M73.3639 87.7812L72.4375 88.1452L74.1383 90.1176L74.55 92.4525L76.2507 94.2667L77.6917 94.007V91.6231L75.9426 90.5333L73.3639 87.7812Z" fill="#66B3FF"/>
<path d="M166.212 37.9648L165.141 39.0476L166.079 40.5356L170.51 41.0746L167.69 38.0985L166.212 37.9648Z" fill="#66B3FF"/>
<path d="M112.267 19.9846L112.4 22.4168L107.57 27.4198L108.78 31.473L112.267 30.5296L114.282 27.5528L119.378 25.6588L123.535 25.3866L120.315 21.8716L118.706 23.0873L117.495 22.6821L116.823 21.1941L115.347 19.7061L112.267 19.9846Z" fill="#66B3FF"/>
<path d="M118.575 12.8199L117.504 14.7139L122.739 16.6079L124.616 13.7697L125.421 15.6644H126.765L129.313 12.8262L126.225 12.0157L125.015 11.0723L123.405 12.6933L118.575 12.8199Z" fill="#66B3FF"/>
<path d="M127.701 16.6074L123.543 18.3628V19.7122L128.912 21.7392L127.701 23.0886L128.506 24.8433L131.86 23.3553H134.68L136.024 25.5153L138.305 23.216L137.766 21.0498L135.89 21.7273L135.624 19.0235L136.562 17.4025H135.624L134.147 18.3467L133.476 18.8849L133.881 20.7796L132.81 21.5901L131.2 21.4571L130.795 19.0242L127.701 16.6074Z" fill="#66B3FF"/>
<path d="M133.202 12.415L132.797 13.7638L135.345 14.9802L137.221 13.8974L137.088 13.087L133.202 12.415Z" fill="#66B3FF"/>
<path d="M135.212 10.1162L133.336 10.7937L133.469 11.7386L137.627 11.4663L137.494 10.5222L135.212 10.1162Z" fill="#66B3FF"/>
<path d="M144.207 12.4157L143.941 13.3592L143.27 14.3033V15.6535L145.818 15.2482L148.499 17.5475H149.437V15.2482L146.756 12.2715L144.207 12.4157Z" fill="#66B3FF"/>
<path d="M151.051 15.1182L152.123 16.3347L151.184 17.9557L151.856 19.7104L154.809 18.0887V16.8736L153.066 14.8467L151.051 15.1182Z" fill="#66B3FF"/>
<path d="M154.941 12.0105L155.074 14.1704H158.7L159.638 14.9809L159.505 15.9244L156.285 16.3303L158.567 19.4401L161.654 19.979L165.945 18.0857L159.771 8.75586L157.895 9.97231L158.028 11.5933L155.879 10.7828L154.941 12.0105Z" fill="#66B3FF"/>
<path d="M123.676 27.2861L118.58 28.6356L115.626 31.2064L115.892 34.0438L121.26 35.6655L120.049 38.37L116.158 35.9364L115.086 37.9633L117.634 39.718L117.501 42.5555L121.393 43.6383L126.09 43.366L126.894 41.878L130.381 45.7982L132.796 44.9884L133.201 42.2839L134.944 43.4997L135.21 40.7952L133.062 39.4458L133.195 30.9334L131.319 29.4454L129.309 32.1498L123.676 27.2861Z" fill="#66B3FF"/>
<path d="M140.048 33.2341L138.305 32.4236L137.367 33.6393L139.244 36.6161L139.377 39.4535L143.402 37.0213V33.5063L144.879 32.0183L143.402 30.9355H140.987L140.048 33.2341Z" fill="#66B3FF"/>
<path d="M148.637 32.0176L145.816 34.3168L146.488 37.1543H148.231L149.036 35.6662L150.246 36.882L151.457 36.749L154.677 34.0445L148.637 32.0176Z" fill="#66B3FF"/>
<path d="M148.363 27.5527L147.691 28.9022L150.645 29.9856L151.45 28.7692L148.363 27.5527Z" fill="#66B3FF"/>
<path d="M146.619 22.416L143.665 22.8213L141.922 24.4416L145.142 24.5745L144.204 27.0068L144.875 28.0902L145.814 27.9572L148.095 24.3093L146.619 22.416Z" fill="#66B3FF"/>
<path d="M151.723 21.4727L150.113 22.0116L150.379 24.1715L153.061 25.9262L153.194 27.275L152.39 28.0862L152.795 30.7906L163.126 34.1663L165.947 35.1105L168.767 32.6783L165.414 29.9738L162.327 30.7843L158.036 30.3791L156.426 28.7581L156.021 24.2989L153.339 22.9495L151.723 21.4727Z" fill="#66B3FF"/>
<path d="M160.172 35.5317L157.219 35.2588L153.732 36.6075L151.856 39.1734L152.394 46.2027L158.163 46.4756L163.664 49.1801L167.556 53.6393L170.51 53.5063L169.704 57.6925L167.023 62.1516L164.07 63.4997L161.921 63.0951L160.85 62.1516L159.24 64.3116L159.912 66.4715L162.194 66.6038L165.014 65.2543L167.429 71.4738L173.469 75.3954L177.626 70.1258L174.14 64.4508L176.155 62.1523L178.976 66.8823L184.072 62.4232L183.134 60.3962L179.647 61.4797L177.233 54.8543L179.515 51.0727L174.951 46.209L172.403 47.9636L169.988 42.694L164.893 43.3715L163.549 37.0191L159.391 39.8572L158.986 43.3715H156.704L156.97 40.2618L160.172 35.5317Z" fill="#66B3FF"/>
<path d="M161.922 22.688V23.9045L158.969 24.582L159.773 25.9307L163.126 27.2802L166.885 27.6861L169.567 29.5794L172.248 28.0907L170.371 26.1974H172.786L174.263 24.5764L177.888 24.0374V23.227L175.873 21.8775L176.139 20.3888L181.774 21.3323L190.096 18.0896L187.008 17.1461L187.814 16.0633H194.253L195.325 14.9805L182.307 10.3828L179.219 9.30005L175.866 11.7329L172.107 8.62322L170.092 8.49023L169.686 11.0624L167.139 8.7632L164.186 9.7074L164.724 11.1954L169.155 12.1403L168.889 14.3002L171.304 15.7876L177.212 14.3002L177.345 16.3272L172.515 18.6264L169.562 16.3272L166.88 16.5995L169.562 20.3867L168.218 21.0649L166.203 19.3095L164.726 20.253L166.07 22.8189H168.352L167.814 25.2511L165.937 24.9788L163.522 22.4074L161.922 22.688Z" fill="#66B3FF"/>
<path d="M149.96 59.8906L147.4 63.1095L147.242 66.6546L149.481 65.3661H152.199L154.117 67.139L155.878 65.6859L149.96 59.8906Z" fill="#66B3FF"/>
<path d="M181.139 101.758L174.742 107.881L175.384 109.332L183.216 112.231L184.335 110.3L183.694 107.081L181.134 107.402L179.693 105.793L182.09 103.379L181.139 101.758Z" fill="#66B3FF"/>
<path d="M285.156 213.478L291.396 213.37L292.662 215.166L292.614 216.491L293.08 216.915H296.179L297.069 215.166H298.334L298.848 215.685L300.584 215.637L301.099 221.736L304.1 221.833V222.305L312.167 225.942L312.543 226.65H314.231L314.043 224.097L310.993 222.632L311.181 220.696L312.495 217.622L315.497 217.525L312.918 208.969L312.966 205.333L317.045 198.957L317.092 198.063L316.48 197.729L316.505 195.998L315.761 195.932L315.011 194.976L302.695 194.419L300.436 196.616L296.739 194.184L295.438 194.982L294.494 202.926L292.157 204.729L291.455 206.326L291.58 208.693L287.367 212.135L286.247 211.627L286.398 212.285L285.156 213.478Z" fill="#66B3FF"/>
<path d="M288.957 194.324L291.777 197.372L292.89 195.933L294.663 196.005L295.044 194.601L296.788 193.512L300.407 196.005L302.495 193.936L310.599 194.293L303.082 186.537L304.092 185.909L304.231 184.541L302.523 183.737H300.017L295.98 187.737L295.842 189.383L292.64 189.281L292.537 189.983L290.449 189.769L288.567 193.344L288.957 194.324Z" fill="#66B3FF"/>
<path d="M286.136 199.448L286.1 200.327L288.992 200.399L289.094 207.908L286.45 207.835L284.918 206.643L283.733 207.309L283.678 207.642L284.29 207.938L284.465 209.481L282.831 210.885L283.182 211.625L284.992 210.221H285.863L286.14 211.06L287.291 211.55L290.982 208.429L290.909 206.148L291.679 204.291L294.045 202.536L294.68 196.602L292.998 196.608L291.05 199.276L286.136 199.448Z" fill="#66B3FF"/>
<path d="M275.187 112.847L272.547 115.654L272.601 115.937L273.685 115.599L274.66 116.955L276.307 116.374L277.445 117.258L277.912 116.992L279.316 114.79L278.958 114.452L277.572 114.416L276.901 113.042L275.187 112.847Z" fill="#66B3FF"/>
<path d="M250.47 195.957L253.058 194.125L256.279 193.561L259.565 194.27L257.888 191.735L257.397 190.186L257.888 185.606L254.953 185.744L253.623 184.475L250.826 184.547L249.495 184.76L249.634 187.857L248.932 188.141L248.09 189.692L250.257 192.225L250.47 195.957Z" fill="#66B3FF"/>
<path d="M161.483 309.307L158.898 314.982L163.359 315.454L163.438 311.672L161.483 309.307Z" fill="#66B3FF"/>
<path d="M160.604 308.416L158.661 310.564L158.425 313.086L154.666 310.956L150.671 305.202L149.497 303.15L151.143 301.02L150.986 298.34L149.109 297.553L147.621 296.453L147.935 294.952L149.89 294.401L150.284 285.731L147.234 283.996L145.242 238.867L145.757 237.973L149.655 246.957L150.902 246.981L151.307 248.415L149.648 250.423L147.742 261.235L150.454 269.561L149.2 275.865L153.619 294.402L154.085 305.244L157.25 308.903L160.604 308.416Z" fill="#66B3FF"/>
<path d="M147.706 285.734L146.925 286.914L147.319 288.967L148.1 289.045L148.493 286.443L147.706 285.734Z" fill="#66B3FF"/>
<path d="M278.16 194.462L280.109 196.255L279.969 199.026L290.659 198.778L291.53 197.799L288.467 194.501L288.013 193.31L289.963 189.662L288.637 187.241L287.523 186.643V185.414L288.812 184.573L288.885 180.75L287.863 180.635L287.846 182.644L283.355 191.023L280.607 191.162L278.725 192.457L278.16 194.462Z" fill="#66B3FF"/>
<path d="M394.718 101.165L392.624 106.429L389.737 106.277L386.692 112.939L389.276 116.229L383.951 123.581L381.215 123.12L379.387 125.419L379.84 126.799L381.971 126.951L383.036 129.401L385.167 129.861L391.71 138.288V142.578L394.905 144.568L398.403 143.957L402.816 146.56L408.141 148.091L410.726 147.784L413.619 147.475L419.701 143.494L421.681 143.802L422.438 145.599L424.115 146.101L426.398 149.47L424.879 152.839L425.793 155.139L428.377 156.057L428.83 158.816L431.875 159.123L432.328 157.744L436.741 155.444L439.477 155.596L442.672 159.117L444.802 158.199L446.17 158.35L446.782 160.038L447.847 160.189L449.365 158.047L455.449 155.748L460.926 149.16L462.754 142.879L462.602 138.741L460.32 138.282L461.687 136.75L461.383 134.3L455.603 128.481V125.571L457.274 123.428L458.946 122.66L459.097 120.972H454.837L454.074 123.271L452.094 122.812L449.661 120.209L451.18 116.228L453.311 113.929L455.29 114.081L454.986 117.602L456.051 118.521L458.636 115.92L459.55 115.768L459.247 113.778L461.681 110.868L463.508 111.019L464.573 107.65L465.82 106.991L465.948 104.891L464.737 103.621L464.634 100.306L466.965 100.154L466.814 91.6052L465.18 92.585L464.575 94.7758L461.846 94.7695L453.936 90.3222L448.222 83.4371L442.424 83.377L440.948 84.6599L442.825 88.9553L442.17 92.9854L439.835 93.9534L438.522 93.8505L438.424 97.8372L439.792 98.1459L442.226 97.075L445.421 98.6057V100.137L443.139 100.288L441.31 104.269L439.64 104.42L433.708 112.231L427.475 114.989L423.213 115.298L420.326 113.307L416.217 115.455L411.804 114.075L410.739 111.165L403.288 110.705L399.334 104.274H397.664L396.319 101.291L394.718 101.165Z" fill="#66B3FF"/>
<path d="M448.845 161.727L447.4 162.132L446.358 163.415L447.224 165.102L448.494 165.216L449.941 163.934L450.285 162.247L448.845 161.727Z" fill="#66B3FF"/>
<path d="M142.528 179.641L141.281 179.514L133.038 186.308L132.166 188.697L131.04 188.825L131.542 194.106L128.668 201.154L131.791 203.797L135.792 204.051L138.539 208.081L142.534 208.209L142.406 211.227H143.901L145.523 205.691L144.022 203.806L144.397 200.284L147.52 200.03L147.144 191.85L140.148 189.588L138.526 185.183L142.528 179.641Z" fill="#66B3FF"/>
<path d="M120.53 182.785L121.372 184.431L122.056 185.339L121.136 188.067L119.38 186.833L116.512 184.207V182.471L120.53 182.785Z" fill="#66B3FF"/>
<path d="M122.628 159.759V160.529L125.849 160.589L127.367 159.705L127.603 160.353L130.762 161.122L133.571 163.657L132.929 164.54L133.044 165.545L135.386 166.132L137.729 165.073L138.782 164.014L137.263 163.245L129.425 158.647L126.678 158.351L122.628 159.759Z" fill="#66B3FF"/>
<path d="M223.53 174.05L222.38 174.709L223.203 175.368L224.189 174.872L223.53 174.05Z" fill="#66B3FF"/>
<path d="M226.355 175.38L225.605 176.046L226.139 177.032L227.422 176.457L226.355 175.38Z" fill="#66B3FF"/>
<path d="M224.714 177.249L223.751 177.824L224.787 179.209L225.604 178.78L224.714 177.249Z" fill="#66B3FF"/>
<path d="M317.736 137.325L318.48 137.865L316.173 140.048L315.072 140.011L314.255 139.437L314.364 138.367L316.035 138.258L317.736 137.325Z" fill="#66B3FF"/>
<path d="M284.579 110.117H286.377H287.261L288.696 111.14L291.353 108.931L288.774 107.093L286.22 105.857L284.471 106.172L282.098 107.697L284.579 110.117Z" fill="#66B3FF"/>
<path d="M274.116 99.8379L276.277 99.4879V97.9635L278.086 97.666L279.079 98.6648L280.126 98.7796L281.76 98.0713L283.218 98.4828L284.501 99.5971L284.677 103.765L285.96 105.471L284.271 105.707L281.469 107.468L281.705 108.055L284.211 110.402L284.035 111.576L281.705 112.75L279.545 112.81L279.018 113.923H277.911L277.384 112.75L275.46 112.277L275.398 110.341L274.425 109.802L274.505 108.499L274.22 107.57L272.833 106.293L273.122 104.296L274.635 103.588L274.116 99.8379Z" fill="#66B3FF"/>
<path d="M277.523 89.9287L275.012 92.706L274.921 94.5146L276.066 97.4983L277.858 97.1596L277.635 94.7217L278.87 93.3422L278.846 92.2587L277.974 90.0029L277.523 89.9287Z" fill="#66B3FF"/>
<path d="M278.821 95.0225L278.078 95.1827V96.2907L278.867 96.9031L279.565 96.7281L279.395 95.6762L278.821 95.0225Z" fill="#66B3FF"/>
<path d="M281.153 93.9678L280.489 94.1288L279.75 94.8063L280.063 96.1739L280.968 96.5288L280.034 96.9032L279.855 97.3827H281.259L281.681 96.6135L281.143 96.3489L281.318 95.6756L281.959 94.8322L281.784 94.1029L281.153 93.9678Z" fill="#66B3FF"/>
<path d="M334.846 180.704L334.5 182.736L336.898 182.699L336.934 179.71L336.057 179.171L334.846 180.704Z" fill="#66B3FF"/>
<path d="M157.865 170.625L157.332 171.756L157.974 172.616L158.773 171.92L157.865 170.625Z" fill="#66B3FF"/>
<path d="M148.206 167.939L145.004 165.845L142.983 165.131L142.578 168.995L142.983 168.962L143.516 169.985L144.212 169.18L146.239 168.641L148.001 169.016L148.206 167.939Z" fill="#66B3FF"/>
<path d="M275.774 135.904L273.305 135.074L263.028 137.005L260.789 138.705L262.157 145.765L258.071 145.929L255.614 149.88L249.761 151.284L249.779 154.157L269.056 168.889L272.342 169.167L283.302 160.606L282.206 159.227L280.149 158.948L278.914 156.88V148.318L278.09 147.489L278.229 145.281L276.038 143.073L275.765 140.725L276.722 140.035L276.309 137.548L275.774 135.904Z" fill="#66B3FF"/>
<path d="M128.288 201.463L125.425 203.241L125.219 205.881L124.645 206.744L126.448 208.475L125.668 209.329L125.849 211.507L129.075 212.276L133.959 206.497L133.947 204.483L131.605 204.332L128.288 201.463Z" fill="#66B3FF"/>
<path d="M106.966 202.872L106.591 204.536L105.895 205.238L106.373 206.097L107.601 205.614L108.188 204.592L107.812 203.516L106.966 202.872Z" fill="#66B3FF"/>
<path d="M302.337 85.1855L298.948 85.0645L296.8 86.3768L296.77 87.3511L298.161 88.6634L302.489 89.3962L302.337 85.1855Z" fill="#66B3FF"/>
<path d="M295.107 85.7056L294.191 86.0136L295.107 86.1718L295.523 86.6547L296.021 86.0584L295.525 85.208L295.107 85.7056Z" fill="#66B3FF"/>
<path d="M295.496 86.9307L294.192 87.5137L293.742 88.2913L294.192 88.7966L295.846 88.1842L296.642 87.6579L295.496 86.9307Z" fill="#66B3FF"/>
<path d="M304.856 145.325L306.472 145.368L309.619 146.239L311.114 146.281L312.967 144.732H313.831L315.406 145.604H317.398L317.755 145.579L319.014 149.198L319.371 150.365L319.705 152.114L319.11 152.549L318.087 152.035L316.906 148.187L315.841 148.109L315.763 149.416L316.472 151.678L322.144 158.696L322.265 161.71L320.613 163.615L305.095 163.44L304.856 145.325Z" fill="#66B3FF"/>
<path d="M325.905 176.566L325.754 173.001L328.151 170.207L328.799 170.703L329.98 174.649L335.645 178.864L334.615 180.13L330.469 176.566L325.905 176.566Z" fill="#66B3FF"/>
<path d="M260.328 122.296H252.616L251.06 121.594L250.31 121.648L249.402 123.535L249.723 125.478L252.671 125.75L253.046 126.989L251.763 134.22L251.817 135.515L253.905 136.647L256.312 136.809L261.13 135.624L263.485 132.661L263.539 129.642L267.716 125.866L267.927 124.196L264.127 124.141L260.328 122.296Z" fill="#66B3FF"/>
<path d="M240.513 151.778L239.453 152.389L239.943 152.886L240.513 151.778Z" fill="#66B3FF"/>
<path d="M236.832 151.893L235.52 152.226L236.174 153.218H237.159L236.832 151.893Z" fill="#66B3FF"/>
<path d="M233.71 150.901L232.886 151.73L234.037 152.723L234.691 151.235L233.71 150.901Z" fill="#66B3FF"/>
<path d="M268.04 129.684L267.078 130.01L267.29 130.875H268.682L269.27 130.227L268.04 129.684Z" fill="#66B3FF"/>
<path d="M321.537 186.888L325.943 177.086L330.319 177.11L334.199 180.48L333.926 183.257H336.934L337.242 184.927L342.108 187.837L345.109 187.989L339.403 194.117L331.565 196.531H329.623L326.162 193.578L324.794 193.004L322.143 189.101L320.393 189.126L320.188 187.335L321.537 186.888Z" fill="#66B3FF"/>
<path d="M295.694 69.0185L296.947 69.5686L297.72 71.0203L296.947 72.0253L293.061 76.2724L292.395 78.5115L293.285 81.7542L296.28 83.9932L300.275 82.0929L303.495 81.645L306.491 76.8351L304.269 71.5774L302.156 66.5436L302.49 63.3009L301.159 63.0769L300.814 60.7112L299.023 57.7891L297.037 59.1623L296.257 62.3511L294.151 61.0864L291.22 60.3718L290.566 61.1347L291.692 62.1516L293.744 62.1146L295.396 64.7826L295.694 69.0185Z" fill="#66B3FF"/>
<path d="M175.345 305.725L173.754 305.55L172.168 306.614L173.318 307.861L175.345 305.725Z" fill="#66B3FF"/>
<path d="M176.93 304.926L176.404 306.613L174.902 307.944L174.993 308.385L177.553 307.406L178.612 306.075L176.93 304.926Z" fill="#66B3FF"/>
<path d="M267.616 106.385L266.279 106.712L263.604 109.622L262.8 109.676L261.729 108.92L261.033 109.083L260.5 110.753L256.59 110.861L256.699 111.727L259.374 113.506L262.479 115.986L262.425 118.951L260.767 121.861L264.356 123.585L268 123.693L269.125 122.398L271.425 122.453L272.067 123.046L274.367 122.883L275.547 121.37L274.045 119.591L273.937 118.46L274.258 117.221L273.508 116.144L272.224 116.518L272.062 115.55L274.9 112.422V110.535L273.256 109.998L272.254 109.307L267.616 106.385Z" fill="#66B3FF"/>
<path d="M171.824 192.962L175.365 195.169L173.513 198.848L172.841 199.694L170.875 198.564L170.93 194.6L171.824 192.962Z" fill="#66B3FF"/>
<path d="M356.577 241.707L355.196 241.797L355.105 243.003L356.025 243.191L357.406 242.543L356.577 241.707Z" fill="#66B3FF"/>
<path d="M340.355 224.725L340.814 225.748H341.553L341.921 224.448L340.355 224.725Z" fill="#66B3FF"/>
<path d="M159.681 173.74L159.039 174.333L159.517 175.301L160.425 175.035L159.681 173.74Z" fill="#66B3FF"/>
<path d="M278.164 123.482L276.983 124.669L276.875 125.745L277.837 126.338L278.212 126.285L278.424 124.717L278.164 123.482Z" fill="#66B3FF"/>
<path d="M156.372 169.711L155.465 170.085L155.786 170.89L156.851 170.194L156.638 169.976L156.372 169.711Z" fill="#66B3FF"/>
<path d="M283.344 199.514L283.271 201.019L279.858 200.946L277.77 204.982L282.679 210.348L283.895 209.331L283.858 208.279L283.024 207.892V207.152L284.906 205.961L286.577 207.226L288.424 207.262L288.386 200.916L285.462 200.779L285.426 199.447L283.344 199.514Z" fill="#66B3FF"/>
<path d="M258.972 88.4651L257.864 90.1414L258.306 90.8126H260.86V91.9325L260.194 92.827L260.636 95.1745L262.077 97.97L263.184 100.54L264.958 101.211L265.732 102.555L265.623 103.783L264.515 104.455L264.406 105.011L265.18 105.459L264.515 106.354L262.959 107.025L259.963 106.692L255.297 108.816L253.742 108.035L258.185 105.464L257.628 105.13L255.297 104.906L256.738 102.783L256.962 100.992L258.849 100.768L258.517 97.3015L256.294 97.1931L255.629 96.4126L255.738 93.8412L254.407 93.9504L255.738 89.4793L258.183 87.6875L258.972 88.4651Z" fill="#66B3FF"/>
<path d="M254.314 95.9609L252.316 96.1849L252.207 97.9767L253.538 98.8712L254.979 98.5387L255.536 97.5337L254.314 95.9609Z" fill="#66B3FF"/>
<path d="M325.152 121.788L327.132 124.372L329.601 125.509L331.12 125.502L333.729 124.795L334.384 123.772L326.667 120.887L325.152 121.788Z" fill="#66B3FF"/>
<path d="M257.896 190.088L258.573 191.679L260.341 194.45L261.321 194.414L263.995 192.894L263.807 184.247L261.737 183.643L258.837 183.721L257.896 190.088Z" fill="#66B3FF"/>
<path d="M183.323 28.5611L182.5 29.8749L183.982 31.3566L183.323 32.839L185.465 35.6345L188.099 34.8114L191.555 34.4852L195.507 38.7624L198.14 45.8343L196.004 50.2753L198.964 49.7797L200.612 50.7659L200.774 52.9077L197.156 53.0707L199.129 55.0424L201.598 55.5386L196.169 62.7751L195.509 67.216L196.659 70.8339L195.836 72.9756L197.319 77.5797L200.115 80.7076L200.938 80.5452L202.748 80.049L202.911 82.6807L204.06 84.3269L206.197 84.1631L207.845 78.0773L212.783 71.9902L220.192 69.0316L224.798 63.272L226.933 64.2575H231.376L234.996 60.6403L239.439 58.8318L239.935 56.0363L237.139 53.5677L234.67 52.7453L233.351 49.2898L236.48 47.4812L241.419 50.1129L243.066 48.3043L240.433 46.8226L246.032 39.2544L245.045 35.9634L242.412 35.801L243.398 32.8418L246.691 31.3594L253.438 25.4374L251.466 23.3006L243.895 23.9592L239.942 27.9109L242.249 22.8106L239.615 22.1513L238.133 24.7837L235.997 22.9744L230.07 23.633L231.718 21.0013L241.426 20.6745L238.956 17.3835L228.425 15.4118L224.147 16.0704L224.31 18.2129L219.868 16.7305L220.03 15.248L216.9 15.9067L216.241 17.5536L219.534 18.7028L216.078 21.1714L213.608 18.376L210.152 17.3905L209.656 20.0222H206.199L204.879 17.2267L199.45 16.4036L196.489 17.8853L196.326 19.8577L192.544 19.3614L190.237 20.3476L190.401 22.6524V23.8031L186.122 24.6262L184.149 23.3125L182.829 25.4486L184.803 27.5903L188.919 27.0941L189.246 28.4134L186.117 29.8959L183.323 28.5611Z" fill="#66B3FF"/>
<path d="M196.491 54.2266L197.477 55.7097L196.982 57.5183H195.995L194.675 56.0351L195.002 54.8852L196.491 54.2266Z" fill="#66B3FF"/>
<path d="M237.639 50.1113L240.435 50.9344L240.271 53.2392L237.311 51.7568L236.652 50.9337L237.639 50.1113Z" fill="#66B3FF"/>
<path d="M235.229 178.769L235.151 179.44L239.339 179.38L239.551 178.756L239.46 178.128L238.255 178.618L235.229 178.769Z" fill="#66B3FF"/>
<path d="M237.367 184.576L239.208 187.408L241.605 185.326L244.063 185.218L246.109 187.934L247.845 189.079L248.499 187.808L249.08 187.481L249.037 184.687L247.882 181.371L244.335 181.764L239.947 181.414L239.924 182.538L237.367 184.576Z" fill="#66B3FF"/>
<path d="M277.566 196.356L277.289 197.548L278.123 198.002L278.923 197.403L278.645 196.175L277.566 196.356Z" fill="#66B3FF"/>
<path d="M280.076 199.55L280.039 200.391L282.786 200.53L282.75 199.581L280.076 199.55Z" fill="#66B3FF"/>
<path d="M295.644 129.919L295.577 130.724L298.38 132.134L299.718 132.648L299.016 133.386L297.454 133.545L297.231 134.252L297.771 135.468L299.52 136.399L300.283 136.466L300.38 134.38L301.525 133L298.402 129.31L298.814 128.057L299.547 128.027L300.661 128.923L301.362 128.572L301.585 127.319L304.199 127.693L304.993 125.426L303.625 126.388L299.612 126.29L297.003 127.64L295.644 129.919Z" fill="#66B3FF"/>
<path d="M301.727 137.779L302.713 137.809L303.126 138.42H304.561L305.515 138.07L305.837 138.457L305.202 139.291L302.399 139.388L301.89 138.717L301.351 138.397L301.727 137.779Z" fill="#66B3FF"/>
<path d="M106.911 174.642L110.5 177.268L114.119 172.773L113.502 171.841L112.267 171.798V169.165L111.341 168.603L108.539 169.437L109.611 171.905L106.911 174.642Z" fill="#66B3FF"/>
<path d="M236.262 182.513L237.11 184.189L239.487 182.144L239.512 181.515L236.709 181.109L236.262 182.513Z" fill="#66B3FF"/>
<path d="M161.484 188.32L165.854 192.276L164.117 194.285L163.977 195.477L166.259 197.83L166.205 200.092L162.235 201.604L159.856 198.391L160.364 194.531L159.348 191.658L161.484 188.32Z" fill="#66B3FF"/>
<path d="M114.578 172.986L120.17 172.773L121.829 174.745L120.794 174.509L118.803 174.593L116.2 177.037L115.087 179.512L114.354 179.124L114.348 176.414L112.738 175.337L114.578 172.986Z" fill="#66B3FF"/>
<path d="M288.932 116.344L286.796 118.104H284.629L284.368 119.628L285.361 119.889L285.857 119.15L286.637 119.834L287.261 122.012L291.539 124.009L291.962 123.526L287.623 119.049L288.065 118.233L292.188 118.075L292.605 116.762L289.918 116.839L288.932 116.344Z" fill="#66B3FF"/>
<path d="M140.793 164.877L142.876 165.095L142.628 167.648L142.422 168.991L139.995 168.858L139.565 169.506L138.821 169.452L138.555 168.055L141.115 167.842L140.957 166.391L139.783 165.907L140.793 164.877Z" fill="#66B3FF"/>
<path d="M289.609 112.979L288.906 114.08L288.961 115.762L290.08 116.335L293.525 116.438L298.324 112.397L298.348 111.502L297.828 111.242L294.36 112.816L289.609 112.979Z" fill="#66B3FF"/>
<path d="M426.239 190.402L426.07 191.782L430.179 198.684H431.377L439.941 213.005L443.367 213.35L445.079 208.347L442.337 206.622L441.823 203.864L426.239 190.402Z" fill="#66B3FF"/>
<path d="M466.82 209.484L468.188 211.161L467.298 213.678V214.157H469.319L470.034 207.865L470.688 208.047L471.874 213.795L473.005 214.099L474.077 211.641L473.005 207.926L472.115 206.309L474.911 204.271L474.257 203.37L471.582 205.106H470.868L469.561 203.188L469.979 202.347L472.182 201.27L475.511 202.287L476.522 202.225L479.02 199.891L478.01 198.875L475.691 200.67H474.202L471.945 199.594L470.341 199.654L468.556 202.528L467.424 207.501L466.82 209.484Z" fill="#66B3FF"/>
<path d="M481.745 198.226L480.613 200.98L482.398 203.315H482.993L483.766 201.759L484.184 201.221L483.411 200.38L482.278 199.962L481.745 198.226Z" fill="#66B3FF"/>
<path d="M485.254 207.271L482.816 207.81L482.101 208.591L482.694 209.608L484.298 209.009L485.308 208.411L486.797 209.609L487.451 209.07L486.266 207.63L485.254 207.271Z" fill="#66B3FF"/>
<path d="M444.813 215.058L443.149 216.195L443.506 217.15L448.802 218.348L451.477 218.827L452.608 220.025L455.64 220.266L457.069 221.464L458.376 221.162L459.568 220.084L457.365 219.068L455.464 217.453L450.525 216.254L444.813 215.058Z" fill="#66B3FF"/>
<path d="M462.126 220.266L460.82 220.986L461.593 221.826L463.494 221.108L462.126 220.266Z" fill="#66B3FF"/>
<path d="M464.382 219.727L464.619 220.864L465.987 221.221L466.52 220.562L465.926 219.66L464.382 219.727Z" fill="#66B3FF"/>
<path d="M467.656 222.723L465.991 222.966L467.48 224.224H468.666L467.656 222.723Z" fill="#66B3FF"/>
<path d="M468.127 220.744L467.77 221.463L470.445 221.88L472.527 220.683L471.341 220.325L469.44 220.865L468.725 220.266L468.127 220.744Z" fill="#66B3FF"/>
<path d="M476.873 221.167L473.781 223.745L474.077 224.404L475.384 224.163L476.928 222.722L479.96 222.304L479.367 221.287L476.873 221.167Z" fill="#66B3FF"/>
<path d="M492.484 203.574L489.96 203.858L488.339 205.043L489.011 206.4L491.759 206.908V207.417L490.023 208.827L490.864 211.761L491.704 211.816L492.431 208.936H493.774L494.339 211.754L500.893 217.176L501.062 221.411L503.301 223.837L504.311 223.784L504.534 208.827L500.726 206.178L497.138 208.605L495.847 209.397L493.717 208.041L493.662 203.752L492.484 203.574Z" fill="#66B3FF"/>
<path d="M462.067 194.534L460.669 199.785L453.085 202.344L450.816 199.682L449.714 199.985L451.772 207.922L454.852 208.267L458.961 209.822V211.377L460.843 211.032L463.585 207.239V204.135L465.128 201.03L466.84 201.374L464.783 197.06L464.469 194.283L462.067 194.534Z" fill="#66B3FF"/>
<path d="M254.973 99.0335L254.423 102.664L249.539 104.456H247.983L246.875 103.675V103.003L249.32 101.437L248.654 100.093L248.763 98.1936L250.877 98.3021L251.845 96.0273L251.717 98.048L253.358 99.3484L254.973 99.0335Z" fill="#66B3FF"/>
<path d="M319.014 142.299L318.059 145.342L319.299 148.991L320.721 143.66V142.517L319.014 142.299Z" fill="#66B3FF"/>
<path d="M395.068 187.645L397.84 186.289L399.487 180.336L399.414 173.028L408.844 162.851V160.439L410.786 159.682L410.713 156.894L408.619 152.822L409.818 150.638L412.438 153.052L415.804 153.203V154.56L414.758 155.691L414.98 156.295L416.778 156.367L417.153 158.4H417.68L419.029 155.986L419.7 149.657L421.946 148.072L422.019 145.888L421.123 144.152L419.701 144.079L414.134 147.758L414.484 150.124L410.574 150.11L409.195 148.423L408.444 148.52L408.698 150.868L400.243 150.264L395.003 147.928L394.725 145.054L391.232 142.889L391.19 138.429L388.793 135.688L383.285 136.215L383.884 138.611L386.582 140.795L381.915 150.343L378.793 150.578L378.279 151.729L381.354 154.572L381.203 157.445L378.062 157.397L377.723 158.825L380.332 158.71L380.405 159.841L378.535 160.821L379.733 163.083L382.052 163.839L383.474 162.786L384.145 160.905L384.97 160.531L385.944 161.509L385.647 163.923L384.975 165.055L385.127 167.015L395.068 187.645Z" fill="#66B3FF"/>
<path d="M330.506 134.416L329.562 139.08L325.652 142.335L325.9 143.871L329.719 144.131L335.802 149.079L339.203 148.983L339.294 147.839L340.541 146.502L342.284 147.488L342.514 147.27L339.143 142.787L337.545 142.69L335.422 139.961L335.844 137.954L336.493 137.869L336.716 136.98L333.823 133.937L330.506 134.416Z" fill="#66B3FF"/>
<path d="M333.74 130.131L333 130.899L333.073 132.116L333.993 133.405L337.254 136.975L336.758 138.403H336.189L335.905 139.831L337.751 142.19L339.453 142.335L342.859 147.047L344.772 147.193L346.261 148.263L346.334 150.406L352.223 153.836H354.421L355.77 152.692L357.472 152.619L358.464 154.906L364.826 155.79L365.015 153.454L367.12 152.692L367.217 151.857L365.54 149.57L361.806 146.569L363.767 144.784L363.628 143.998L361.17 143.617L360.129 135.328L360.008 133.422L353.344 130.873L350.391 131.539L348.738 133.566L347.273 133.469L346.85 133.826L343.588 133.614L339.472 130.613L337.94 128.938L337.238 129.105L335.972 130.552L333.74 130.131Z" fill="#66B3FF"/>
<path d="M234.908 69.2425L233.723 68.5713L232.124 69.5813L230.75 70.8509L230.787 71.5599L232.566 71.7832L232.457 73.0535L231.828 73.6891L231.98 74.1006L233.759 74.2154V76.2717L236.319 76.7204L237.838 77.5806L239.545 77.6534L242.476 76.1954L244.738 73.2061L244.775 71.1855L243.401 70.0236L242.251 69.0493L241.731 69.4245L240.95 70.4345L240.06 70.3197L239.17 69.3447L238.021 69.4539L236.35 70.839L235.344 71.9218L234.787 71.4388L234.75 70.2406L235.307 69.8654L234.908 69.2425Z" fill="#66B3FF"/>
<path d="M274.8 117.446L274.426 118.395L274.528 119.429L275.974 121.117L278.249 121.038L283.273 126.871L286.409 127.779L288.262 129.528L288.704 133.514L289.696 132.934L290.557 130.762L290.345 129.201L291.816 129.068L292.028 128.184L287.882 126.201L283.948 122.335L282.381 120.023L281.999 117.828L284.002 117.349L283.488 115.903L282.259 114.869L281.2 114.82L279.724 115.226L278.331 117.173L277.49 117.729L276.189 116.931L274.8 117.446Z" fill="#66B3FF"/>
<path d="M287.01 133.198L286.132 132.727L283.137 133.198L283.239 134.009L285.933 135.365L286.338 135.806L287.047 135.909L287.01 133.198Z" fill="#66B3FF"/>
<path d="M278.001 127.367L276.398 128.178L276.611 131.306L277.894 131.523L278.856 130.605V127.641L278.001 127.367Z" fill="#66B3FF"/>
<path d="M133.572 167.425L131.466 167.957V168.545L132.695 169.253H133.984L134.801 168.309L133.572 167.425Z" fill="#66B3FF"/>
<path d="M321.181 143.944L319.692 149.135L319.625 149.928H321.968L324.589 147.616L324.654 146.739L323.584 145.644L325.502 144.054L325.224 142.578L324.698 142.699L323.1 143.844L321.181 143.944Z" fill="#66B3FF"/>
<path d="M475.111 129.206L474.124 130.199L474.529 131.596L475.395 131.656L475.976 134.688L476.671 135.444L477.888 134.336L477.994 130.996L476.594 129.508L475.111 129.206Z" fill="#66B3FF"/>
<path d="M480.271 126.403L478.409 127.912L477.995 129.815L479.264 130.69L481.102 128.766L481.361 126.622L480.271 126.403Z" fill="#66B3FF"/>
<path d="M478.121 123.494L475.167 126.876V128.501L476.99 128.283L479.851 125.769L481.763 125.417L482.227 125.962L482.237 127.626L482.719 128.501H483.598L484.832 126.991L485.353 125.006L487.84 124.945L490.273 122.03L489.003 117.189L488.422 114.624L489.693 113.577L486.799 109.209L486.138 108.688L484.825 109.209L484.489 111.018V112.476L485.185 113.293L485.414 117.141L483.622 119.355L482.582 118.713L481.77 120.522L481.595 122.21L482.231 123.203L481.826 123.959L480.494 122.851H479.568L478.758 123.317L478.121 123.494Z" fill="#66B3FF"/>
<path d="M483.102 97.1514L482.177 97.9689L482.642 99.7173L483.453 100.533L483.393 103.214L482.352 103.619L481.541 105.427L483.913 108.688L485.475 108.162L485.765 107.345L484.088 105.832L485.129 104.489L486.229 104.664L488.631 106.278L488.89 104.469L490.031 102.384L491.629 100.766L489.9 99.9783L489.239 98.7178L488.373 99.2987L487.624 100.23L486.002 99.8796L484.324 98.7724L483.102 97.1514Z" fill="#66B3FF"/>
<path d="M491.836 95.3428L490.214 97.6175L490.329 98.7247L491.14 98.3734L493.046 95.9839L491.836 95.3428Z" fill="#66B3FF"/>
<path d="M493.977 92.0214L493.396 93.5948L493.457 94.6419L494.443 93.9993L495.369 92.1362V91.4404L493.977 92.0214Z" fill="#66B3FF"/>
<path d="M322.349 195.818L323.959 198.957L322.027 203.004L321.774 204.232L331.416 210.192L334.407 205.497L332.893 204.27L332.863 198.086L334.757 196.017L331.737 197.021L329.456 197.052L325.885 194.039L324.759 193.555L322.672 193.748L322.304 194.366L322.349 195.818Z" fill="#66B3FF"/>
<path d="M374.388 118.793L374.2 120.325L374.352 121.269L379.618 123.035L374.994 124.899L374.468 124.462L373.469 125.104L373.516 125.455L374.049 125.697L377.295 125.782L378.941 125.286L381.054 122.624L383.698 123.083L386.889 118.666L378.355 117.504L377.174 120.365L375.685 118.769L374.388 118.793Z" fill="#66B3FF"/>
<path d="M437.132 179.452L439.608 182.095L444.212 178.683L444.617 173.299L442.24 174.939L441.004 174.249L439.327 174.025L438.388 173.367L437.934 173.391L436.706 175.406L436.906 176.338L438.153 177.034L438.001 178.927L437.132 179.452Z" fill="#66B3FF"/>
<path d="M338.604 222.868L338.882 223.793L340.08 223.981L340.539 222.777L338.604 222.868Z" fill="#66B3FF"/>
<path d="M460.011 115.805L461.124 116.271L461.463 120.167L463.672 120.295L465.754 117.857L465.034 117.216L465.119 114.603L467.031 112.291L466.056 110.537L466.692 109.81L467.043 107.995L465.935 107.492L464.99 107.971L463.822 111.515L461.934 111.353L459.749 113.93L460.011 115.805Z" fill="#66B3FF"/>
<path d="M466.101 118.182L469.841 121.23L470.478 124.184L470.35 125.769L468.522 127.826L466.948 127.91L465.162 124.056L464.484 122.216L465.204 121.66L465.034 120.89L464.145 120.492L466.101 118.182Z" fill="#66B3FF"/>
<path d="M341.994 147.81L340.633 147.071L339.688 148.02L339.79 149.921L341.988 150.761L341.994 147.81Z" fill="#66B3FF"/>
<path d="M337.998 112.386L340.479 111.327L343.251 111.23L343.445 115.465H341.822L340.582 117.486L342.204 120.179L344.594 121.528L344.812 123.072L345.691 122.781L346.501 121.818L347.838 122.109L348.51 123.459H350.229V121.728L349.176 118.648L348.697 116.15L351.753 114.8L355.862 115.471L358.442 118.067L364.27 117.493L367.521 122.11L371.341 122.302L372.394 120.572L373.731 120.281L373.923 118.357L375.927 118.26L376.979 119.512L378.033 117.013L387.105 118.265L388.631 116.245L386.052 113.069L389.49 105.567L392.262 105.759L394.174 101.144L390.354 100.756L388.157 98.6399L382.105 99.3412L374.309 91.8087L371.56 94.2458L363.226 90.4648L353.003 95.4678L352.719 99.0255L355.109 101.815L350.449 104.446L344.402 104.313L343.137 102.457L338.398 102.195L333.907 105.081L333.809 109.027L337.998 112.386Z" fill="#66B3FF"/>
<path d="M434.1 157.345L432.635 158.088L431.419 161.633L433.452 164.222L433.113 167.085L433.452 167.222L436.836 165.583L441.374 170.652L441.264 173.846L442.252 174.379L444.69 172.401L444.49 170.834L437.451 164.149L437.518 163.126L438.396 162.515L437.784 160.809L434.872 160.33L434.1 157.345Z" fill="#66B3FF"/>
<path d="M319.546 138.898L319.583 140.078L319.087 141.87L320.794 142.016L320.903 139.474L319.546 138.898Z" fill="#66B3FF"/>
<path d="M159.629 176.16L159.199 177.074L159.895 177.824L160.803 177.34L159.629 176.16Z" fill="#66B3FF"/>
<path d="M400.856 184.642L401.008 186.288L401.159 187.486L400.27 187.637L400.718 190.331L402.054 191.08L404.131 189.882L403.538 187.044L403.689 185.998L401.759 184.207L400.856 184.642Z" fill="#66B3FF"/>
<path d="M243.267 191.382L249.912 195.823L249.753 192.46L247.744 190.094L245.783 188.357L243.267 191.382Z" fill="#66B3FF"/>
<path d="M308.171 255.635L310.018 254.213L310.889 254.25L311.942 255.562L311.833 256.876L310.06 257.53V258.039L308.105 257.93L307.633 256.509L308.171 255.635Z" fill="#66B3FF"/>
<path d="M295.038 93.5398L293.535 93.7939L293.656 95.2112L296.005 95.3862L296.895 96.1155L297.128 97.3824L297.852 98.3923L300.001 98.3013L302.058 95.6816L301.937 94.1264L298.063 93.5195L295.038 93.5398Z" fill="#66B3FF"/>
<path d="M272.833 109.18L273.365 109.656L273.981 109.714L274.117 108.5L273.939 107.818L273.082 108.226L272.833 109.18Z" fill="#66B3FF"/>
<path d="M302.518 89.8508L298.063 89.125L297.303 91.1009L296.019 91.4844L295.348 90.6634L294.674 89.3959L293.948 89.9292L293.535 92.1213V93.3168L295.105 93.0543L298.371 93.1124L302.304 93.8431L303.879 93.3833L303.788 91.6167L302.518 89.8508Z" fill="#66B3FF"/>
<path d="M279.51 148.331L280.455 148.174L280.733 145.995H281.205L283.136 142.826L287.9 144.211L289.2 146.232L293.884 148.375L296.322 147.346L296.085 146.317L295.02 145.288L295.142 144.574L296.873 143.109H300.3L301.599 144.851L304.354 145.25L304.712 167.57L302.666 167.491L290.307 161.065L288.969 161.822L283.891 160.552L282.511 158.73L280.501 158.452L279.48 156.631L279.51 148.331Z" fill="#66B3FF"/>
<path d="M260.286 138.802H253.297L251.928 141.839L248.775 143.357L246.171 150.4L241.099 153.438L233.976 165.17L240.966 165.03L241.238 161.582H243.017V156.887H249.186L249.323 150.812L255.219 149.432L257.687 145.426L261.524 145.288L260.286 138.802Z" fill="#66B3FF"/>
<path d="M304.141 111.836L306.018 114.722L305.86 116.355L306.532 116.386L308.123 113.693L306.21 111.321L305.127 110.873L304.141 111.836Z" fill="#66B3FF"/>
<path d="M293.316 122.545L292.43 123.797L292.683 124.566L293.736 124.759L294.565 123.634L293.316 122.545Z" fill="#66B3FF"/>
<path d="M347.447 223.891L346.158 226.953L343.949 230.848L340.082 231.125L338.423 233.073L338.701 239.014L336.305 241.798L336.582 246.53L338.61 248.847L341.007 248.57L343.404 246.804L342.853 244.02L348.38 234.461L347.272 233.257L348.38 230.939L349.578 231.307L349.946 230.382L348.839 225.651L348.192 223.702L347.447 223.891Z" fill="#66B3FF"/>
<path d="M298.191 124.117L296.152 124.788L296.25 126.519L296.728 127.13L299.149 126.006L298.191 124.117Z" fill="#66B3FF"/>
<path d="M242.836 177.256L244.7 175.98L255.062 175.919L252.666 159.257L255.401 159.179L268.637 169.277L270.416 169.53L269.745 175.144L261.422 175.9L255.001 180.693L253.832 183.973L249.372 184.161L248.234 180.887L244.814 181.129L244.947 180.059L242.836 177.256Z" fill="#66B3FF"/>
<path d="M430.453 181.981L428.775 179.295L429.991 177.589L428.841 175.476L427.758 175.271L427.552 171.726L425.93 168.586L425.457 169.336L424.374 171.175L423.018 171.381L422.34 170.492L422.001 168.102L420.984 166.191L416.844 162.289L417.861 161.617L418.05 158.792L419.563 156.25L420.217 149.929L422.408 148.434L422.48 146.129L423.794 146.564L425.864 149.559L424.328 152.849L425.364 155.433L427.923 156.437L428.389 159.252L431.827 159.784L430.877 161.424L426.544 163.131L426.072 165.925L429.256 170.016L429.388 172.199L428.645 172.95L428.71 173.633L431.083 177.113L431.151 180.724L430.453 181.981Z" fill="#66B3FF"/>
<path d="M396.773 101.224L400.295 96.5537L404.527 98.5079L407.401 99.2764L410.923 96.0463L408.532 94.2846L410.106 92.0645L414.803 93.7226L416.43 96.3906L419.371 96.469L420.908 95.3254L424.074 95.198L424.763 96.3724L430.023 96.6384L433.352 93.2445L437.958 93.7275L437.692 98.3497L439.707 98.8088L442.183 97.6848L444.803 98.9796L444.742 99.634L442.842 99.6886L440.862 103.839L439.325 103.99L433.346 111.801L427.238 114.494L423.418 114.791L420.247 112.745L416.192 114.911L412.198 113.672L411.066 110.773L403.5 110.24L399.627 103.677L397.745 103.555L396.773 101.224Z" fill="#66B3FF"/>
<path d="M234.024 165.652L235.344 167.376L235.071 174.83L236.99 173.45L238.357 173.172L240.276 173.862L242.466 176.899L244.524 175.52L254.528 175.381L252.059 158.676L254.71 158.664L249.771 154.883L249.777 157.34L243.525 157.347L243.495 162.035L241.697 162.028L241.468 165.489L234.024 165.652Z" fill="#66B3FF"/>
<path d="M287.112 137.707L286.102 137.913L286.138 139.033L287.046 139.336L287.451 138.997L287.112 137.707Z" fill="#66B3FF"/>
<path d="M359.982 239.663L359.063 240.868L359.245 242.167L361.183 240.588L359.982 239.663Z" fill="#66B3FF"/>
<path d="M386.243 192.333L386.425 193.912L387.435 194.281L387.617 192.889L386.243 192.333Z" fill="#66B3FF"/>
<path d="M387.533 195.672L387.442 197.62L388.181 197.988L388.828 196.689L387.533 195.672Z" fill="#66B3FF"/>
<path d="M387.719 199.478L387.071 200.125L387.811 200.772L388.73 200.125L387.719 199.478Z" fill="#66B3FF"/>
<path d="M320.124 227.81L322.007 229.777L321.97 232.295L322.334 233.354L324.834 230.656L324.544 227.227L323.205 226.206L322.014 220.184L319.949 220.111L320.887 224.448L320.124 227.81Z" fill="#66B3FF"/>
<path d="M72.1753 134.657L75.0986 143.858L73.7367 144.62L73.8879 146.447L76.4604 148.426V152.086L79.6379 155.134L78.276 146.143L76.4604 140.195L76.9142 136.082L78.4273 136.234L79.0329 137.607L78.4273 141.11L86.2953 156.501V161.989L92.6508 169.455L99.6107 172.655L102.486 170.978L106.571 174.33L108.992 171.893L107.933 169.145L111.413 168.081L112.472 168.692L113.532 167.627H115.196L118.222 162.291L116.709 160.918L110.808 162.291L109.446 166.254L105.966 166.866L101.881 165.189L100.065 159.4L101.439 152.097L98.6304 150.348L97.2931 143.335L96.1735 142.857L94.1275 144.933L91.7791 143.68L90.8598 139.004L81.5571 138.029L76.7517 134.417L72.1753 134.657Z" fill="#66B3FF"/>
<path d="M432.43 189.12L433.645 191.848L433.919 195.393L435.546 197.915L439.114 200.073L439.815 199.519L440.84 199.318L440.691 197.981L439.402 194.847L437.514 190.836L437.355 191.538L435.079 191.435L433.445 189.088L432.43 189.12Z" fill="#66B3FF"/>
<path d="M451.452 199.689L453.28 201.802L460.29 199.375L461.676 194.026L464.798 193.802L467.655 191.733L463.951 189.036L463.103 187.553L461.276 190.923L461.947 192.859L460.833 194.476L458.733 193.936L453.643 197.669L453.775 199.829L451.452 199.689Z" fill="#66B3FF"/>
<path d="M316.501 248.308L318.13 249.657L321.966 247.323L322.583 243.856V238.132L328.738 233.099L329.793 233.136L333.519 229.562L332.939 222.192L323.27 223.412L323.633 225.749L325.048 226.978L325.447 230.99L322.117 234.239L321.318 232.417L321.463 230.009L319.544 227.928L314.835 230.119L319.217 232.346L319.364 238.837L316.464 243.139L316.501 248.308Z" fill="#66B3FF"/>
<path d="M289.497 253.559L291.525 253.705L292.717 254.909L295.543 254.945L296.232 246.923V241.671L298.042 241.307L298.733 235.801L303.332 235.657L304.959 234.308L302.205 234.199L298.476 234.707L294.458 233.25H283.164L283.455 236.456L287.219 241.998L286.565 244.841L286.602 246.336L289.497 253.559Z" fill="#66B3FF"/>
<path d="M537.7 252.659L537.488 253.742L540.277 257.633L541.779 258.281L541.991 256.768L537.7 252.659Z" fill="#66B3FF"/>
<path d="M267.912 180.983L269.455 180.946L270.847 178.86L273.183 178.442L275.671 179.961L280.978 180.112L285.082 178.442L286.625 177.116L286.74 175.374L289.602 172.489L290.358 166.117L288.476 162.172L283.659 160.998L272.51 169.686L270.93 169.534L270.252 175.565L264.563 176.134L267.912 180.983Z" fill="#66B3FF"/>
<path d="M268.323 191.493L270.696 191.608L273.559 194.797L274.95 195.178L276.041 194.645L277.698 194.416L278.262 192.104L280.52 190.622L282.965 190.508L287.443 182.273L287.37 180.416L285.301 178.825L281.161 180.647L275.623 180.569L272.984 178.899L271.102 179.317L270.121 181.023L270.048 185.838L268.469 188.077L268.323 191.493Z" fill="#66B3FF"/>
<path d="M120.746 174.999L122.072 175.266L122.115 177.982L120.571 182.387L116.414 181.975L115.487 179.852L116.722 177.274L119.065 175.096L120.746 174.999Z" fill="#66B3FF"/>
<path d="M273.479 100.074L270.737 101.424L271.318 101.95L271.38 103.299L270.799 103.185L270.157 102.187L268.625 104.613L270.98 105.102L271.857 106.028L272.323 106.04L272.631 103.948L274.114 103.324L273.479 100.074Z" fill="#66B3FF"/>
<path d="M300.942 60.0646L302.165 59.1694L302.055 58.165L301.281 57.7164L301.391 56.4887H302.056V55.8168L299.169 55.0371L294.841 55.485L294.399 57.3846L293.399 57.0508L292.733 55.9316L290.621 56.0401L290.397 58.1629L289.399 58.6116L288.842 57.4917L284.399 61.0676L285.289 62.0727L283.624 62.8531L279.848 70.3428L278.517 71.238L278.625 71.9093L279.956 72.5805L279.623 74.0321L277.402 73.9173L276.735 73.1369L275.295 74.8132L274.405 75.4844L274.181 77.0522L273.407 77.5002L271.409 77.9481L270.41 81.083L271.076 86.226L271.85 88.5735L272.74 89.4687L274.738 89.3595L277.626 86.5641L278.733 84.6652L279.067 87.4593L280.956 84.1074L281.063 74.7117L282.6 73.7437L283.06 68.5588L287.72 61.8494L289.942 61.069L290.941 59.8406L294.27 60.621L295.934 61.6254L296.491 58.8313L299.27 57.1543L300.942 60.0646Z" fill="#66B3FF"/>
<path d="M284.478 30.9145L283.48 29.9102L281.264 30.9873H277.197L276.555 33.3593L278.837 35.3737L279.835 35.2281L281.263 32.7847L282.474 33.6491L281.614 35.3737L281.184 37.8906L282.183 39.4696L284.325 35.8755L287.111 32.4935L286.039 31.5626L284.478 30.9145Z" fill="#66B3FF"/>
<path d="M285.688 26.6025L283.902 28.2536L284.973 29.9047H286.898L287.685 30.9819L290.039 32.2039L292.75 30.6249L294.608 29.0459L293.967 27.751L292.109 26.6739L290.752 27.8959L289.827 26.7453L289.112 26.8181L288.186 28.8324L286.831 27.4648L286.685 26.5332L285.688 26.6025Z" fill="#66B3FF"/>
<path d="M289.757 34.0068L288.329 35.3024L287.118 36.2347L287.687 37.2391L288.832 37.5967L290.689 36.7316L291.55 35.6544L290.763 34.3596L289.757 34.0068Z" fill="#66B3FF"/>
<path d="M395.196 145.021L395.474 147.604L400.363 149.817L408.2 150.398L407.904 148.505L402.668 147.064L398.225 144.421L395.196 145.021Z" fill="#66B3FF"/>
<path d="M541.563 289.861L542.205 297L541.345 300.243L538.125 302.62L538.338 305.434V308.459L539.198 309.542L548.004 301.973V300.243H545.856L542.847 290.08L541.563 289.861Z" fill="#66B3FF"/>
<path d="M535.121 305.435L536.84 308.677L532.113 313.221L531.684 315.598L528.463 316.027L523.094 320.999L518.155 318.622L517.726 316.891L526.744 313.001L535.121 305.435Z" fill="#66B3FF"/>
<path d="M351.129 168.181L355.602 165.603L356.395 161.822L355.415 161.259L355.821 157.205L356.674 156.709L357.589 158.143L363.03 160.986V162.567L356.439 172.263L353.407 172.366L351.129 168.181Z" fill="#66B3FF"/>
<path d="M122.473 185.587L121.59 188.345L124.508 189.101L126.317 189.459L126.626 187.323L128.569 186.343L130.293 187.232L130.971 188.315L131.794 188.219L132.441 186.252L130.286 185.362L128.652 184.473L127.018 185.586L125.075 186.565L123.09 185.767L122.473 185.587Z" fill="#66B3FF"/>
<path d="M125.159 209.733L123.985 210.92L124.064 212.811L134.317 231.495L144.963 238.356L146.609 235.597L147.003 229.53L146.143 225.749L143.243 220.86L141.519 221.411L140.738 222.276L137.295 218.331L138.155 213.679L142.149 211.077L141.835 208.633L137.767 208.475L135.655 204.93L134.481 204.537L134.56 206.668L129.318 212.893L125.402 211.949L125.159 209.733Z" fill="#66B3FF"/>
<path d="M505.09 208.989L504.867 223.776L506.998 223.661L509.8 220.388L512.154 220.503L513.667 221.859L514.169 226.033L518.988 228.574L520.223 228.121V226.596L516.355 223.377L514.449 218.972L515.962 218.239L514.841 215.813L512.602 215.759L512.039 213.163L506.102 209.158L505.09 208.989Z" fill="#66B3FF"/>
<path d="M523.325 213.065L522.751 213.199L522.4 214.754L521.299 215.469L517.988 216.05L518.121 217.295L521.607 217.121L523.816 215.741L523.685 213.338L523.325 213.065Z" fill="#66B3FF"/>
<path d="M521.869 209.419L521.335 210.175L524.248 212.753L524.646 214.265L525.439 214.174L525.53 212.62L524.646 211.822L521.869 209.419Z" fill="#66B3FF"/>
<path d="M466.723 178.279L466.203 179.272L465.913 180.494L463.02 184.166L463.195 184.922L464.411 184.747L468.17 180.548L466.723 178.279Z" fill="#66B3FF"/>
<path d="M471.405 176.881L471.344 179.912L472.445 181.019L472.85 183.173L473.952 183.409L474.471 182.066L473.606 181.425L473.376 177.637L471.405 176.881Z" fill="#66B3FF"/>
<path d="M474.537 178.049L474.477 180.729L475.112 181.775L476.212 180.493L475.922 178.164L474.537 178.049Z" fill="#66B3FF"/>
<path d="M475.226 175.714L476.327 177.172L476.847 178.57H477.834L477.659 176.18L476.557 175.424L475.226 175.714Z" fill="#66B3FF"/>
<path d="M477.369 181.195L477.599 182.944L475.571 184.577L473.894 184.753L472.101 186.677L472.162 187.553L473.84 187.028L474.996 186.272L475.981 188.776L477.718 189.999L478.414 189.762L479.049 189.006L477.663 187.609L478.475 186.968L479.4 187.723L480.035 186.677L479.4 185.394L479.286 182.538L477.369 181.195Z" fill="#66B3FF"/>
<path d="M467.939 163.42L466.378 164.527L466.203 168.024L468.637 172.743L469.448 173.383L470.488 172.681L472.28 172.972L472.625 174.545L473.956 174.66L474.592 173.788L473.781 172.681L472.794 171.75L470.712 171.521L469.61 169.711L470.882 167.787L470.996 166.1L470.131 163.946L467.939 163.42Z" fill="#66B3FF"/>
<path d="M468.75 173.851L469.21 175.485L470.021 176.011L470.602 175.255L469.676 173.972L468.75 173.851Z" fill="#66B3FF"/>
<path d="M366.109 149.426L367.683 151.762L367.531 152.966L365.437 153.796L365.285 155.756H367.683L368.505 155.078H373.07L377.186 158.697L377.712 156.96H380.781L380.854 154.776L377.713 151.763L378.385 150.105L381.604 149.883L385.945 140.837L383.547 138.955L382.652 135.791L388.487 135.265L385.044 130.365L383.209 129.869L382.46 130.777L381.896 130.82L378.452 133.003L379.578 134.89L378.307 136.246L376.733 142.048L372.841 144.535L372.314 147.252L366.109 149.426Z" fill="#66B3FF"/>
<path d="M298.517 104.002L299.031 104.945L299.152 105.949L298.729 106.924L297.761 108.788L296.944 109.156L295.884 108.697L295.248 108.727L293.705 109.308L291.95 108.788L289.106 106.773L286.321 105.279L285.2 103.573L284.988 99.548L287.167 97.6548L290.011 96.7099L290.941 96.6133L291.162 97.3181L292.37 97.8024L295.707 97.8654L296.736 97.8353L298.431 100.431L298.008 101.495L298.19 102.747L298.517 104.002Z" fill="#66B3FF"/>
<path d="M153.01 168.314L151.412 167.775L150.129 168.58L150.771 169.329L152.956 169.65L153.01 168.314Z" fill="#66B3FF"/>
<path d="M249.779 126.072L249.403 131.306L248.332 132.275L248.441 132.867L249.191 134.107L248.707 135.619L249.512 135.892L251.388 135.674L251.28 134.162L252.509 127.149L252.242 126.181L249.779 126.072Z" fill="#66B3FF"/>
<path d="M236.009 141.306L235.355 142.135L236.009 142.964L236.995 142.468L236.009 141.306Z" fill="#66B3FF"/>
<path d="M214.498 129.569L213.676 130.398L215.151 131.227L215.315 130.073L214.498 129.569Z" fill="#66B3FF"/>
<path d="M218.935 129.073L217.949 129.732L218.771 130.39L220.085 130.057L218.935 129.073Z" fill="#66B3FF"/>
<path d="M219.588 131.391L219.098 132.715L219.752 133.544L220.575 132.886L219.588 131.391Z" fill="#66B3FF"/>
<path d="M223.53 134.034L223.203 134.863L223.693 135.359L225.006 134.53L223.53 134.034Z" fill="#66B3FF"/>
<path d="M165.548 239.979L166.88 241.43L166.723 244.504L170.56 244.268L173.459 247.976L173.223 251.286L171.346 254.124L167.51 254.281L167.352 252.702L168.447 250.1L164.688 247.734H161.559L159.211 245.212L160.918 240.335L165.548 239.979Z" fill="#66B3FF"/>
<path d="M347.647 154.98L347.333 157.407L348.264 158.115L349.111 158.037L349.426 154.981L348.693 154.455L347.647 154.98Z" fill="#66B3FF"/>
<path d="M298.956 111.77L298.797 112.665L295.293 115.581L298.223 119.876L300.1 121.19H303.477L304.591 120.258L306.086 120.065L307.2 120.736L309.174 118.492L308.792 117.367L306.789 116.853L305.421 116.787L305.487 114.862L303.671 112.007L298.956 111.77Z" fill="#66B3FF"/>
<path d="M294.944 115.967L293.703 116.899H293.099L292.688 118.181L294.152 119.882L294.25 121.232L293.632 122.104L295.78 124.341L298.103 123.633L297.911 120.329L294.944 115.967Z" fill="#66B3FF"/>
<path d="M484.036 42.3924L485.102 46.0711L487.232 46.6821L489.362 43.3127L488.146 41.0135L488.6 39.0223H491.795L491.032 40.5537L491.336 46.0711L486.771 57.409L487.225 59.8594L487.074 63.9973L495.588 76.4061L497.26 76.866L497.411 66.7571L499.082 65.2257L497.254 61.2446L498.774 59.5564L495.427 55.1147L493.599 55.2666L492.994 47.9154L497.709 46.687L498.011 44.5397L500.446 43.9287L501.814 45.1577L503.484 38.4168L506.372 33.5174L508.654 32.2884L510.633 32.4403V30.141L507.438 29.53L503.026 25.8513L505.157 23.4016L503.33 19.263L504.848 17.7322L506.676 20.1819L511.24 21.8694L516.258 22.3293L516.869 20.1868L514.286 17.5853L517.172 13.6041L510.629 11.3049L508.959 14.6743L506.828 11.9159L494.814 7.77734L483.405 9.76791L481.733 10.6876V11.6066L484.167 12.8356L483.863 15.7452L479.451 13.9058L469.72 17.7364L468.048 14.2152H461.354L458.308 17.4341L447.511 14.9837L437.628 16.9742L436.412 20.0364L437.931 20.4955L437.78 22.7947L428.198 23.8649L428.809 26.927L419.984 25.3956L422.115 21.4145L413.139 20.9547L413.902 25.0932L411.015 26.4728L408.581 24.1736L398.697 25.8617L394.897 29.383L394.745 31.5248L392.311 31.6759L392.008 29.2262L399.767 22.4868V17.8883L394.75 16.5088L388.207 18.6512L385.471 15.8922H384.255L382.735 18.9536L383.952 20.3331L375.278 25.0834L367.826 30.7528L363.262 37.0324V39.634L368.127 41.6252L365.694 43.4639L360.525 41.6252L358.394 43.4639L355.199 39.7852L354.588 41.1654L358.086 52.1947L359 52.5026L361.435 51.275L362.65 52.194V54.1845L360.369 53.2655L359 54.3357L359.916 56.3263L359.152 61.5357L354.437 61.9956L354.135 60.3074L356.87 58.6199L357.482 54.0214L354.437 50.0403L353.372 43.149L348.507 42.3805L348.053 44.8302L348.967 46.0578L346.989 47.746L347.751 52.3444L350.639 53.5728L351.25 56.9422L348.356 55.1035L340.905 53.7233L339.991 56.1744L334.058 58.3161L333.145 56.7854L325.385 61.0738L325.234 63.984L322.189 64.4439L323.104 62.3021V60.1597L320.059 59.0895L318.08 59.858L319.751 63.077L320.967 65.2187V66.9069L318.684 66.4477L318.231 65.9879L315.949 68.4383L317.165 70.5807L311.995 70.4289L313.667 72.5769L313.214 73.4959H310.478L308.499 72.1163L308.046 68.2864L304.851 67.0581V65.5273L311.545 66.9076L315.195 67.2155L316.715 64.9163L315.347 62.4659L305.615 58.636L302.255 59.4703L301.105 60.4572L301.463 62.7249L302.891 62.9726L302.558 66.5429L306.964 76.8884L303.779 81.9341L303.561 83.0714L305.178 84.2088L303.719 85.1712L302.75 85.1894L302.932 89.6359L304.27 91.5299L304.288 93.3686L306 93.5261L308.62 94.5241L311.392 98.3359L311.423 99.3402L310.522 100.884L312.591 100.769L314.606 101.35L317.331 105.203L324.037 105.814L323.746 110.4L321.435 112.379L321.913 113.152L319.63 115.603L319.025 117.902L320.393 119.893L324.805 121.424L326.634 120.353L338.346 124.795L338.799 123.566L336.365 121.268V118.358L334.845 117.898L335.149 115.448L337.583 112.538L333.22 109.271L333.523 104.727L338.189 101.66L343.666 101.968L344.581 103.657L350.21 103.965L354.32 101.666L352.188 99.3668L352.641 95.0771L363.288 89.8683L371.476 93.5582L374.212 91.1085L382.274 98.767L388.357 98.156L390.488 100.298L396.268 100.909L400.07 95.7007L404.935 97.848L407.519 98.3086L410.104 96.0094L407.822 94.4779L409.801 91.4165L415.43 93.2559L416.645 95.7063L419.08 95.8575L420.599 94.7873L424.709 94.6354L425.162 95.7063L429.876 96.0142L433.07 92.6449L439.613 93.4134L441.593 92.6449L442.198 88.9661L440.219 84.5244L442.198 82.837H448.432L454.364 89.8844L461.966 94.1742H464.248L464.551 92.3355L467.286 90.6473L467.589 100.606L465.156 100.757V103.207L466.524 104.895L466.27 107.085L467.28 107.503L467.892 105.972L468.806 106.281L469.411 106.892L472.147 106.281L474.882 98.3121L475.186 88.353L471.688 80.3844L467.276 75.0252L465.144 75.3332V77.0213L459.976 75.0301L461.954 70.741L463.626 59.4031L470.622 57.2613L473.968 55.1196H477.618L476.7 56.3473L477.614 57.8787L480.809 54.5093L482.636 54.6598L482.333 52.6692L479.44 52.0582L481.42 44.8582L484.036 42.3924Z" fill="#66B3FF"/>
<path d="M293.618 95.6768L292.711 97.3538L295.977 97.3839H296.642L296.517 96.4376L296.007 95.8398L293.618 95.6768Z" fill="#66B3FF"/>
<path d="M497.394 78.1484L496.645 79.0807L496.705 80.5386L497.4 80.4785L498.556 78.4396L497.394 78.1484Z" fill="#66B3FF"/>
<path d="M522.36 21.4961L520.932 22.4277L520.594 23.6133L521.266 24.3755L522.778 23.8674L524.291 24.3755L525.132 24.6296L525.047 21.8342L522.36 21.4961Z" fill="#66B3FF"/>
<path d="M320.527 21.7373L321.568 22.1558L320.836 23.4143V25.1991L319.274 26.144H317.61L316.672 24.9884L316.774 23.73L317.507 22.7851H318.966L320.527 21.7373Z" fill="#66B3FF"/>
<path d="M324.484 20.5823V21.8407L325.525 22.682L326.983 22.5798L328.235 21.4243V20.583H327.091L326.153 20.8972L325.421 20.0566L324.484 20.5823Z" fill="#66B3FF"/>
<path d="M330.429 20.6901L331.162 22.2635L332.621 22.3664L333.661 21.9493L333.142 20.4788L331.785 20.1631L330.429 20.6901Z" fill="#66B3FF"/>
<path d="M336.366 18.591L335.221 18.3789L334.18 19.4316L334.701 20.3758L335.015 21.8463L336.371 20.7992L336.686 19.6443L336.366 18.591Z" fill="#66B3FF"/>
<path d="M342.723 29.7188L342.408 31.1886L340.011 33.2883L334.903 34.4439L330.732 41.3709L330 43.3678L334.171 44.4212L334.793 41.9036L336.047 38.0198L339.278 36.3378L341.989 34.2381L343.968 33.3975H345.009V30.5656L342.723 29.7188Z" fill="#66B3FF"/>
<path d="M329.28 45.043L332.094 45.3579L333.033 48.6118L335.43 51.1294L334.595 52.8106H333.136L331.78 51.2372L328.76 51.135L327.507 49.4531V48.2976L329.385 47.7712L329.28 45.043Z" fill="#66B3FF"/>
<path d="M373.262 9.25118L371.905 8.40918H370.344L370.03 9.35406L368.366 10.2989L367.113 10.7161L366.907 11.9746L369.824 12.1866L373.262 9.25118Z" fill="#66B3FF"/>
<path d="M376.487 9.56445L375.754 11.1372L374.296 11.035L372.002 12.7162L371.379 14.8159H372.837L373.673 13.449L375.651 14.9195L377.529 14.0782L378.885 12.9233L378.364 11.1379L377.632 9.87941L376.487 9.56445Z" fill="#66B3FF"/>
<path d="M379.516 10.7207L380.248 13.6611L381.392 16.3886L382.645 14.1867L385.042 13.6604V12.0869L383.481 10.9314L379.516 10.7207Z" fill="#66B3FF"/>
<path d="M436.698 6.01476L438.327 7.38169L439.481 6.90365L439.82 4.98589L437.447 3.34668L435.886 4.37486L432.085 4.71992V6.43121L428.077 6.4984V9.29946L432.761 12.7843L433.985 11.8947L433.712 9.43174L436.701 8.68213L436.09 7.52028L435.007 6.42631L436.698 6.01476Z" fill="#66B3FF"/>
<path d="M441.043 4.3734L442.126 6.42555L446.339 5.94681L447.495 4.44059L447.222 3.14084L446.067 2.66211L444.983 3.48521L441.86 4.16972L441.043 4.3734Z" fill="#66B3FF"/>
<path d="M440.77 12.372L438.663 11.8281L437.447 13.1279L436.902 14.9064L439.753 14.6341L441.926 13.5394L440.77 12.372Z" fill="#66B3FF"/>
<path d="M495.356 0.544534L493.59 0L491.556 0.750303L490.539 2.25582L491.829 3.96781L495.225 2.46229L495.902 1.71199L495.356 0.544534Z" fill="#66B3FF"/>
<path d="M496.008 81.7076V84.2728L496.819 84.5633L497.399 83.631V81.6523L496.008 81.7076Z" fill="#66B3FF"/>
<path d="M472.335 72.4375L472.282 76.1702L476.966 83.4003L478.643 89.6918L481.598 95.2884L482.752 95.6943L483.739 94.8768L484.199 93.5344L479.974 88.9303L480.089 86.5394L481.015 86.1349L481.245 84.7371L472.972 73.024L472.335 72.4375Z" fill="#66B3FF"/>
<path d="M504.975 60.8398L503.82 60.9546L504.516 61.9471L505.961 62.9396L506.367 62.4734L504.975 60.8398Z" fill="#66B3FF"/>
<path d="M507.227 61.543L507.402 62.5341L509.195 63.0604L509.371 62.3591L507.227 61.543Z" fill="#66B3FF"/>
<path d="M517.062 65.3477L517.819 66.7034L519.079 66.6187L519.332 65.6864L517.062 65.3477Z" fill="#66B3FF"/>
<path d="M529.755 67.4643L530.764 69.3275L531.521 68.4813V67.2109L529.755 67.4643Z" fill="#66B3FF"/>
<path d="M314.472 203.914L316.173 205.48L316.1 207.157L313.461 207.211V205.359L314.472 203.914Z" fill="#66B3FF"/>
<path d="M342.424 151.482L346.668 157.392L348.036 158.482L348.648 161.131L355.178 161.645L355.917 162.033L355.184 165.299L350.893 167.828L344.617 169.728L341.27 172.996L337.293 170.678L334.885 172.784L331.531 167.308L329.231 166.255L328.397 164.991V162.25L320.027 152.135L319.711 150.342H322.12L325.049 147.815L325.151 146.549L324.317 145.709L325.994 144.342L329.553 144.554L335.623 149.611L339.206 149.449L339.437 150.333L342.424 151.482Z" fill="#66B3FF"/>
<path d="M527.254 215.777L528.004 217.864L529.329 219.153L529.728 218.796L529.596 217.416L528.094 215.594L527.254 215.777Z" fill="#66B3FF"/>
<path d="M530.914 218.887L531.006 220.266L531.846 221.065L532.64 220.575L531.931 219.104L530.914 218.887Z" fill="#66B3FF"/>
<path d="M531.975 222.312L531.266 223.068L532.016 224.447L532.9 224.714L532.858 223.782L531.975 222.312Z" fill="#66B3FF"/>
<path d="M533.7 221.512L534.317 223.024L535.509 224.445L536.169 223.38L535.285 221.868L533.7 221.512Z" fill="#66B3FF"/>
<path d="M536.792 223.78L537.143 225.65L537.986 226.805L538.694 225.34L536.792 223.78Z" fill="#66B3FF"/>
<path d="M537.761 227.962L537.453 228.494L538.469 229.831L539.178 229.875L538.735 228.138L537.761 227.962Z" fill="#66B3FF"/>
<path d="M535.509 230.624L534.449 231.114L535.375 232.404L536.168 231.956L535.509 230.624Z" fill="#66B3FF"/>
<path d="M353.532 215.069L353.164 215.813L354.174 216.647L354.913 215.813L353.532 215.069Z" fill="#66B3FF"/>
<path d="M358.694 209.504L357.586 210.247L358.417 211.547H359.525L358.694 209.504Z" fill="#66B3FF"/>
<path d="M359.153 212.752L358.414 213.587L358.964 214.421L359.974 214.61L360.065 212.844L359.153 212.752Z" fill="#66B3FF"/>
<path d="M304.843 184.388L303.058 183.335L301.43 180.122L301.521 177.133L303.778 175.193L303.887 168.034L305.376 168.077L305.206 164.102L320.822 164.24L323.055 161.99L327.873 169.692L325.233 172.801V177.55L322.013 184.473L321.285 186.083L318.688 182.362L316.792 184.77L314.65 185.354L307.689 184.654L304.655 185.733L304.843 184.388Z" fill="#66B3FF"/>
<path d="M290.205 61.543L291.39 62.6369H293.612L294.834 64.9845L295.168 69.0076L292.173 71.1318V73.2546L290.06 76.1649L288.838 76.2727L287.173 79.0681L287.281 81.7544L290.169 83.8787L289.946 85.1063L288.838 86.7833L287.174 88.2349L287.282 93.0448L284.729 93.9399L283.839 95.8388H282.615L281.951 92.4869L279.172 88.2286L281.454 84.4106L281.612 74.9778L283.186 74.1127L283.568 68.7171L288.052 62.2975L290.205 61.543Z" fill="#66B3FF"/>
<path d="M290.671 89.125L289.394 90.135L290.036 91.6174L291.168 90.5164L290.671 89.125Z" fill="#66B3FF"/>
<path d="M439.398 200.256L439.879 200.528L440.963 200.44L440.872 199.623L439.988 199.762L439.398 200.256Z" fill="#66B3FF"/>
<path d="M288.437 114.426L286.9 115.345L284.031 115.974L284.605 117.631L286.615 117.655L288.468 116.106L288.437 114.426Z" fill="#66B3FF"/>
<path d="M289.066 111.485L289.484 111.854L289.538 112.482L294.157 112.38L297.57 110.909L297.516 109.414L296.862 109.705L295.924 109.202L295.349 109.178L293.836 109.783L291.779 109.287L289.066 111.485Z" fill="#66B3FF"/>
<path d="M239.488 187.717L242.908 191.021L245.347 188.062L243.821 185.672L241.72 185.884L239.488 187.717Z" fill="#66B3FF"/>
<path d="M239.222 180.004L235.166 179.906L235.917 181.728L236.334 180.603L241.425 181.135L241.99 181.116L244.374 181.2L244.458 180.147L242.28 177.534L239.853 174.25L238.346 173.621L237.183 173.918L234.799 175.648L234.255 176.617L234.086 177.585L234.963 178.214L237.894 178.171L239.776 177.662L239.988 178.587L239.819 179.809L239.222 180.004Z" fill="#66B3FF"/>
<path d="M347.247 182.223L349.892 181.207L350.83 181.77L350.727 184.117L348.289 191.063L335.088 205.194L333.557 204.142L333.454 198.178L335.439 195.896L339.652 194.596L345.831 188.075L347.448 186.634L347.901 184.529L347.247 182.223Z" fill="#66B3FF"/>
<path d="M166.378 192.564L167.612 193.695L169.524 192.51L171.268 192.564L171.044 193.242L170.311 194.767L170.197 198.561L166.717 199.976L166.886 197.544L164.641 195.45L164.755 194.374L166.378 192.564Z" fill="#66B3FF"/>
<path d="M321.084 186.477L319.656 187.106L320.109 189.593H321.889L324.303 193.095L322.365 193.343L321.869 194.244L321.821 195.544L316.011 195.442L315.417 194.54L311.356 194.311L303.899 186.638L304.644 186.19L307.806 185.236L314.736 185.763L317.093 185.236L318.658 183.139L321.084 186.477Z" fill="#66B3FF"/>
<path d="M273.875 202.25L274.57 201.898L275.091 202.321L274.57 203.125L273.941 202.877L273.875 202.25Z" fill="#66B3FF"/>
<path d="M275.272 200.041L276.32 199.865L276.671 200.531L276.15 201.094L275.63 201.022L275.272 200.041Z" fill="#66B3FF"/>
<path d="M111.008 177.517L113.852 178.932L113.81 176.687L112.351 175.798L111.008 177.517Z" fill="#66B3FF"/>
<path d="M319.829 136.896L319.617 138.433L321.324 139.148L321.251 143.407L322.958 143.37L324.665 142.081L325.306 141.973L329.18 138.894L329.96 134.422L322.218 135.209L321.401 137L319.829 136.896Z" fill="#66B3FF"/>
<path d="M316.318 248.744L314.799 248.997L314.145 250.783L315.306 251.842H316.717L317.909 250.13L316.318 248.744Z" fill="#66B3FF"/>
<path d="M287.218 177.352L287.296 175.566L290.166 172.778L290.935 165.929L289.023 162.275L290.361 161.59L303.313 168.336L303.234 174.955L300.952 176.897V180.309L302.448 183.201H299.808L295.439 187.522L295.323 188.828L292.099 188.786L292.056 189.378L290.216 189.136L288.957 186.759L288.011 186.293L288.133 185.567L289.318 184.659V180.413L287.678 180.159L285.699 178.688L287.218 177.352Z" fill="#66B3FF"/>
<path d="M264.482 192.63L266.103 191.681L266.066 185.419L265.013 183.713L264.336 184.281L264.482 192.63Z" fill="#66B3FF"/>
<path d="M430.808 161.907L432.769 164.43V167.498L433.446 167.836L436.564 166.335L437.175 166.541L440.897 170.837L440.764 173.771L439.548 173.565L438.464 172.88L437.653 172.948L436.231 175.33L436.504 176.626L437.654 177.237L437.587 178.671L436.777 179.082L433.997 177.171V175.465L432.848 175.398L432.376 176.147L432.133 183.782L433.93 187.062L437.114 190.13L436.982 191.019L435.286 190.954L433.731 188.636H432.103L430.071 186.995L429.459 185.289L430.337 183.855L430.639 182.56L431.596 180.865L431.553 176.97L429.217 173.594L429.119 173.183L429.876 172.421L429.7 169.74L426.591 165.802L426.954 163.533L430.808 161.907Z" fill="#66B3FF"/>
<path d="M370.38 126.435L372.867 123.35H373.805L374.132 124.038L372.982 124.873V125.562L373.739 126.106L377.377 126.324L378.562 125.815L379.101 125.923L379.465 127.085L381.626 127.303L382.709 129.59L382.382 130.279L381.953 130.317L381.524 129.445L380.585 129.372L378.964 129.591L378.855 131.117L377.233 131.008L377.306 129.083L376.12 127.923L374.317 129.41L374.354 130.39L372.768 130.935H371.829L371.902 127.558L370.38 126.435Z" fill="#66B3FF"/>
<path d="M348.387 123.864L348.012 125.455H345.5V127.609L348.199 129.388L347.365 131.825V132.951L348.484 133.139L349.973 131.171L353.327 130.422L360.492 133.139L360.583 135.105L364.584 135.48L369.051 130.792L368.493 129.291L365.516 128.636L357.138 123.197L356.764 121.23H353.598L352.2 123.857H350.802L348.387 123.864Z" fill="#66B3FF"/>
<path d="M276.399 135.806L279.746 134.457L280.847 135.171L280.889 136.042L280.376 136.713L280.453 137.905L280.968 138.182V140.324L280.375 141.317L280.453 141.952L282.698 142.745L280.889 145.558L280.18 145.516L280.059 147.778L279.272 147.9L278.601 147.305L278.758 145.007L276.555 142.864L276.277 141.001L277.342 140.167L276.399 135.806Z" fill="#66B3FF"/>
<path d="M309.514 126.205L307.9 125.207L307.01 124.498L305.513 125.139L304.479 127.757L306.032 127.407L307.126 126.576L309.533 127.232L308.171 128.546L304.547 128.371L303.21 129.836V130.551L304.064 131.265V132.051L303.706 132.983L304.064 133.769L305.202 133.201L306.34 134.417L306.056 135.276L305.633 135.85L306.268 136.565L309.391 137.206L311.589 136.274V134.919L312.654 135.131L315.208 136.631L317.973 136.202L319.178 135.059L319.958 135.343V136.631H321.023L321.942 134.847L330.029 133.986L333.557 133.557L332.626 132.335L332.608 130.684L333.316 129.837L330.738 127.768L330.876 125.983H329.46L327.112 124.833L325.761 126.261L320.798 126.115L317.82 124.331L314.962 124.587L311.78 126.497L309.514 126.205Z" fill="#66B3FF"/>
<path d="M159.783 182.664L159.141 183.257L158.445 183.365V184.225L159.729 185.406L160.261 184.545L160.582 183.577L160.472 182.773L159.783 182.664Z" fill="#66B3FF"/>
<path d="M465.565 148.5L463.423 150.134L463.309 153.279L465.161 155.433L465.621 155.027L465.565 148.5Z" fill="#66B3FF"/>
<path d="M323.103 222.871L332.764 221.689L330.386 217.091L330.259 212.687L331.028 210.581L320.968 204.266L317.816 204.786L316.721 205.596L316.624 207.442L315.915 210.001L315.176 210.878L314.116 210.976L316.083 217.568L319.455 219.555L322.392 219.625L323.103 222.871Z" fill="#66B3FF"/>
<path d="M301.008 103.028L299.253 104.014L299.688 105.878L298.066 109.297L298.08 110.802L298.843 111.286L303.732 111.528L305.1 110.398L306.565 110.887L308.665 113.688L307.129 116.447L308.956 116.98L311.347 114.227L312.715 114.475L313.986 115.358L312.865 116.834L314.378 119.193H315.988L316.817 117.62L318.524 117.274L318.573 115.998L315.402 115.508L315.5 114.134H318.574L321.891 111.479L323.356 110.202L323.597 106.173L317.06 105.586L314.379 101.805L312.527 101.17L310.281 101.267L309.271 103.765L304.671 103.826L303.176 103.136L301.008 103.028Z" fill="#66B3FF"/>
<path d="M314.766 203.423L316.599 205.141L317.75 204.409L320.86 203.9L321.394 203.955L321.592 202.774L323.348 199.084L321.872 196.01L317.085 196.041L317.055 197.306L317.697 197.923L317.599 199.188L314.766 203.423Z" fill="#66B3FF"/>
<path d="M78.9966 94.0674L78.391 96.4996L76.2785 95.132H75.2254L74.6197 97.7153L67.23 114.268L69.1912 128.691L71.6061 129.907L72.0599 133.858H77.0347L81.8583 137.5L91.3542 138.413L92.4073 143.271L93.9141 144.336L96.0265 142.213L97.6853 142.969L99.1921 149.951L101.752 151.621L103.864 147.67L110.347 142.963L114.565 144.934L118.185 145.237L118.336 142.963L125.871 143.115L127.378 144.785L127.681 148.578L126.779 150.702L127.832 154.343H130.096L132.359 150.853L131.457 149.183L130.555 145.541L131.91 141.439L138.09 136.127L142.763 134.76L142.158 130.355L148.64 123.368L155.122 122.303L154.069 118.669L160.4 115.026V110.168L159.795 109.865L157.531 110.622L157.228 113.599L149.705 113.689L143.81 117.604L134.556 120.629L133.079 118.819L137.279 112.467L135.203 110.489L133.793 107.803L130.87 105.455L127.692 105.189L121.688 101.093L78.9966 94.0674Z" fill="#66B3FF"/>
<path d="M30.8252 30.5459L32.9195 34.4612L34.2631 34.1588V32.8024L30.8252 30.5459Z" fill="#66B3FF"/>
<path d="M19.0165 64.9775L18.9136 66.7987L20.2208 66.4963V65.6858L19.0165 64.9775Z" fill="#66B3FF"/>
<path d="M17.009 65.7881L14.3945 67.1074L14.7999 68.5227L15.8047 67.7121L17.8142 66.7981L17.009 65.7881Z" fill="#66B3FF"/>
<path d="M6.1435 67.5078L4.33422 67.1025L4.03174 67.913L4.23129 69.4311L6.1435 67.5078Z" fill="#66B3FF"/>
<path d="M2.31832 67.4091L0.605661 66.7021L0 67.815L1.10769 68.9286L2.31832 67.4091Z" fill="#66B3FF"/>
<path d="M45.3128 25.4285L40.2351 26.633L41.2825 32.3499L46.8084 33.8554L47.1046 35.0593L38.8914 37.6189L34.2611 45.29L35.9016 53.4153L38.5889 55.2183L40.6832 53.2634L41.2825 54.4679L38.7409 57.4748L28.8808 61.9885L22.6044 63.4941L22.4531 65.7513L36.9428 61.5406L42.9168 59.8825L48.4426 53.1115L54.5679 49.052L51.4324 54.3161L54.8703 54.7689L60.6987 52.21L61.7462 56.4214L65.7771 57.3229L69.9594 61.3824L70.2555 64.3892L69.6569 65.1395L70.4012 67.9952H71.4487L71.5999 63.1791H72.7923L73.0885 75.0615L76.079 72.502L73.9847 60.166H70.8493L67.4114 55.8048L84.2915 27.2174L67.5626 14.1318L48.8908 17.7441L48.1465 23.461L52.1774 25.868L50.6825 29.7833L45.3128 25.4285Z" fill="#66B3FF"/>
<path d="M170.753 259.592L169.512 260.917L170.026 268.045L173.924 269.175L178.881 264.208L170.753 259.592Z" fill="#66B3FF"/>
<path d="M369.613 130.804L371.477 130.9V127.711L369.711 126.682L372.689 122.932H373.9L375.111 124.343L378.276 123.126L373.9 121.626L373.73 120.718L372.691 120.972L371.668 122.75L367.255 122.605L364.017 118.026L358.328 118.588L355.617 115.902L351.865 115.268L349.141 116.375L350.721 121.626L350.738 123.392L351.888 123.417L353.298 120.73L357.051 120.777L357.608 122.84L365.651 128.177L368.761 128.891L369.613 130.804Z" fill="#66B3FF"/>
<path d="M159.682 178.472L158.938 179.011L159.525 180.088L160.487 179.549L159.682 178.472Z" fill="#66B3FF"/>
<path d="M158.774 180.565L158.078 181.261L158.344 181.689H159.197L159.463 180.987L158.774 180.565Z" fill="#66B3FF"/>
<path d="M140.55 183.355L140.816 184.922L142.783 185.546L143.231 182.66L145.307 180.513L147.383 182.945L152.159 184.246L156.202 183.398L158.955 186.792L161.031 188.093L158.756 191.559L159.518 194.186L158.217 195.795L156.867 196.926L153.944 195.454L153.273 196.133V198.225L155.41 199.242L153.836 200.943L152.262 202.643L150.186 202.474L148.098 200.182L147.656 191.555L140.526 189.122L139.23 185.328L140.55 183.355Z" fill="#66B3FF"/>
<path d="M439.906 182.464L440.625 183.596L440.759 184.891L442.653 185.097L444.953 182.029L447.12 181.418L448.271 178.284L447.731 173.238L445.498 170.17L443.144 168.288L440.149 163.145L442.297 159.551L439.221 156.024L436.758 155.916L434.543 157.107L435.203 159.957L438.157 160.477L438.95 162.673L437.909 163.351L437.976 163.895L444.905 170.672L445.177 172.663L444.76 178.954L439.906 182.464Z" fill="#66B3FF"/>
<path d="M546.312 238.593L545.562 239.597L545.878 240.728L546.252 240.982L546.938 240.098L546.312 238.593Z" fill="#66B3FF"/>
<path d="M546.688 241.672L546.748 242.489L547.559 242.743L548.123 242.429L547.559 241.544L546.688 241.672Z" fill="#66B3FF"/>
<path d="M547.875 248.968L547.5 249.536L548.063 250.164L549.001 249.85L547.875 248.968Z" fill="#66B3FF"/>
<path d="M335.156 173.257L336.027 175.846V178.375L338.122 180.275L352.877 174.267L353.016 172.616L350.649 168.369L344.712 170.263L341.305 173.614L337.352 171.279L335.156 173.257Z" fill="#66B3FF"/>
<path d="M351.879 179.561L353.169 181.002L354.911 179.949L355.539 179.736L354.741 178.963L353.209 179.416L351.879 179.561Z" fill="#66B3FF"/>
<path d="M312.259 242.471L307.477 246.888L306.34 249.616L302.551 249.144L299.398 251.945L297.304 251.74L297.472 247.868L296.729 247.608L296.209 255.527L292.492 255.491L291.372 254.17L289.73 254.154L291.227 258.443L293.896 260.966L291.989 263.186L293.224 265.97L296.081 267.06L298.357 265.123L304.876 265.161L305.343 264.58L308.236 264.07L318.024 254.329L317.986 251.262L316.94 252.618H315.373L313.466 251.021L314.434 248.613L316.099 248.276L315.947 243.327L312.259 242.471ZM309.965 253.663L310.88 253.627L312.363 255.236L312.32 257.099L310.583 257.976L310.474 258.594L307.824 258.624L306.994 256.627L307.75 255.163L309.965 253.663Z" fill="#66B3FF"/>
<path d="M300.391 231.017L302.308 233.678L305.28 233.861L306.333 234.441L309.444 234.478L312.125 230.722L319.618 227.37L320.272 224.417L319.401 220.187L315.492 217.961L312.882 218.143L311.582 221.022L311.619 222.335L314.693 223.83L314.875 227.079L312.232 227.225L311.577 226.13L304.229 222.995L304.011 225.403L300.537 225.512L300.391 231.017Z" fill="#66B3FF"/>
<path d="M306.508 235.616L311.938 241.745L316.102 242.804L318.891 238.431L318.673 232.635L314.146 230.3L312.444 231.068L309.909 234.935L306.398 234.898L306.508 235.616Z" fill="#66B3FF"/>
<path d="M292.074 77.5236L267.836 77.5236L280.026 101.75L292.074 77.5236Z" fill="#081236"/>
<path d="M321.16 66.6232L296.922 66.6232L309.112 90.8496L321.16 66.6232Z" fill="#081236"/>
<path d="M352.669 133.245L328.431 133.245L340.621 157.472L352.669 133.245Z" fill="#081236"/>
<path d="M405.992 151.414L381.754 151.414L393.944 175.641L405.992 151.414Z" fill="#081236"/>
<path d="M448.411 170.796L424.172 170.796L436.363 195.022L448.411 170.796Z" fill="#081236"/>
</g>
<defs>
<clipPath id="clip0_752:4045">
<rect width="549" height="321" fill="white"/>
</clipPath>
</defs>
</svg>
