<svg width="550" height="351" viewBox="0 0 550 351" fill="none" xmlns="http://www.w3.org/2000/svg">
<path d="M0 0H550V315.517V350.221H471.983H0V0Z" fill="white"/>
<rect width="550" height="26.6912" fill="#081236"/>
<rect y="26.6914" width="155.294" height="323.529" fill="#C3CFEC"/>
<rect x="12.9412" y="7.2793" width="64.7059" height="12.9412" fill="#F7F7F7"/>
<rect x="12.9412" y="49.3384" width="129.412" height="19.4118" fill="#F7F7F7"/>
<rect x="12.9412" y="136.691" width="129.412" height="19.4118" fill="#708CD1"/>
<rect x="12.9412" y="75.2207" width="129.412" height="19.4118" fill="#F7F7F7"/>
<rect x="12.9412" y="162.574" width="129.412" height="19.4118" fill="#708CD1"/>
<rect x="12.9412" y="101.103" width="129.412" height="19.4118" fill="#F7F7F7"/>
<rect x="12.9412" y="188.456" width="129.412" height="19.4118" fill="#708CD1"/>
<rect x="12.9412" y="308.162" width="129.412" height="19.4118" fill="#66B3FF"/>
<rect x="84.1177" y="7.2793" width="64.7059" height="12.9412" fill="#F7F7F7"/>
<rect x="155.294" y="7.2793" width="64.7059" height="12.9412" fill="#F7F7F7"/>
<rect x="168.235" y="49.3384" width="310.588" height="6.47059" fill="#C1C4CD"/>
<rect x="168.235" y="198.162" width="208.676" height="6.47059" fill="#C1C4CD"/>
<rect x="168.235" y="62.2793" width="273.382" height="6.47059" fill="#C1C4CD"/>
<rect x="168.235" y="211.103" width="183.603" height="6.47059" fill="#C1C4CD"/>
<rect x="168.235" y="75.2207" width="287.941" height="6.47059" fill="#C1C4CD"/>
<rect x="168.235" y="224.044" width="193.309" height="6.47059" fill="#C1C4CD"/>
<rect x="168.235" y="88.1616" width="310.588" height="6.47059" fill="#C1C4CD"/>
<rect x="168.235" y="236.985" width="208.676" height="6.47059" fill="#C1C4CD"/>
<rect x="168.235" y="101.103" width="225.662" height="6.47059" fill="#C1C4CD"/>
<rect x="168.235" y="249.926" width="151.25" height="6.47059" fill="#C1C4CD"/>
<rect x="472.353" y="7.2793" width="64.7059" height="12.9412" fill="#66B3FF"/>
<rect x="168.235" y="120.515" width="64.7059" height="12.9412" fill="#66B3FF"/>
<rect x="168.235" y="269.338" width="64.7059" height="12.9412" fill="#66B3FF"/>
<path d="M474.609 264.073L474.609 304.453L519.264 284.144L474.609 264.073Z" fill="#8EDCEB"/>
<path d="M474.609 214.43L474.609 254.81L519.264 234.501L474.609 214.43Z" fill="#8EDCEB"/>
<path d="M474.609 165.517L474.609 205.897L519.264 185.588L474.609 165.517Z" fill="#8EDCEB"/>
<path d="M425.441 239.37L425.441 279.75L470.096 259.441L425.441 239.37Z" fill="#8EDCEB"/>
<path d="M425.441 189.782L425.441 230.162L470.096 209.853L425.441 189.782Z" fill="#8EDCEB"/>
<path d="M470.096 264.073L470.096 304.453L425.441 284.144L470.096 264.073Z" fill="#8EDCEB"/>
<path d="M470.096 214.43L470.096 254.81L425.441 234.501L470.096 214.43Z" fill="#8EDCEB"/>
<path d="M519.265 239.37L519.265 279.75L474.609 259.441L519.265 239.37Z" fill="#8EDCEB"/>
<path d="M519.265 288.458L519.265 328.838L474.609 308.529L519.265 288.458Z" fill="#8EDCEB"/>
<path d="M519.265 189.782L519.265 230.162L474.609 209.853L519.265 189.782Z" fill="#8EDCEB"/>
</svg>
