<svg width="26" height="26" viewBox="0 0 26 26" fill="none" xmlns="http://www.w3.org/2000/svg">
<path d="M25.2383 13.7617C25.659 13.7617 26 13.4207 26 13V7.3125C26 6.89183 25.659 6.55078 25.2383 6.55078C24.7073 6.55078 14.334 6.55078 13.7617 6.55078V1.625C13.7617 1.20433 13.4207 0.863281 13 0.863281H4.875C4.45433 0.863281 4.11328 1.20433 4.11328 1.625V6.55078H0.761719C0.341047 6.55078 0 6.89183 0 7.3125V13C0 13.4207 0.341047 13.7617 0.761719 13.7617H4.11328V17.9258H0.761719C0.341047 17.9258 0 18.2668 0 18.6875V24.375C0 24.7957 0.341047 25.1367 0.761719 25.1367H25.2383C25.659 25.1367 26 24.7957 26 24.375V18.6875C26 18.2668 25.659 17.9258 25.2383 17.9258H21.8867V13.7617H25.2383ZM24.4766 12.2383C23.6616 12.2383 18.6299 12.2383 17.8242 12.2383V8.07422H24.4766V12.2383ZM16.3008 12.2383C15.503 12.2383 10.5023 12.2383 9.69922 12.2383V8.07422H16.3008V12.2383ZM5.63672 2.38672H12.2383V6.55078C11.4405 6.55078 6.43982 6.55078 5.63672 6.55078V2.38672ZM1.52344 12.2383V8.07422H8.17578V12.2383C7.36978 12.2383 2.33822 12.2383 1.52344 12.2383ZM5.63672 13.7617H12.2383V17.9258C11.4405 17.9258 6.43982 17.9258 5.63672 17.9258V13.7617ZM1.52344 19.4492H8.17578V23.6133H1.52344V19.4492ZM9.69922 19.4492H16.3008V23.6133H9.69922V19.4492ZM24.4766 19.4492V23.6133H17.8242V19.4492H24.4766ZM20.3633 17.9258C19.5655 17.9258 14.5648 17.9258 13.7617 17.9258V13.7617H20.3633V17.9258Z" fill="#F7F7F7"/>
</svg>
