<svg width="20" height="33" viewBox="0 0 20 33" fill="none" xmlns="http://www.w3.org/2000/svg">
<path d="M13.9753 2.44875L13.9721 2.46223L11.4614 13.175H17.6185C18.7625 13.175 19.3662 14.4428 18.7585 15.3398L7.98399 31.4473C7.82999 31.7016 7.58497 31.8883 7.29158 31.9638C6.99731 32.0395 6.72377 31.9872 6.5193 31.8953C6.15607 31.732 5.68784 31.2516 5.84863 30.5666L8.2535 19.2851H2.38155C1.23524 19.2851 0.631373 18.0122 1.24511 17.115L1.24467 17.1156L2.07059 17.6794L1.2454 17.1145L13.9753 2.44875ZM13.9753 2.44875L13.9781 2.43519M13.9753 2.44875L13.9781 2.43519M13.9781 2.43519C14.1027 1.8283 13.7646 1.32719 13.3364 1.11865C13.1402 1.02313 12.8735 0.962074 12.5825 1.02648C12.311 1.08658 12.0336 1.25993 11.8689 1.55157L13.9781 2.43519ZM9.48914 18.2851H8.46667H9.48914Z" stroke="#F7F7F7" stroke-width="2"/>
</svg>
