<svg width="23" height="29" viewBox="0 0 23 29" fill="none" xmlns="http://www.w3.org/2000/svg">
<path d="M22.1892 12.2513H20.8377V11.1076C20.8377 9.04162 20.1766 7.08377 18.9258 5.44568C17.822 4.00013 16.2971 2.89499 14.5911 2.29453L14.463 1.48149C14.4009 1.08729 14.0612 0.796875 13.6621 0.796875H9.33788C8.93877 0.796875 8.59906 1.08729 8.537 1.48155L8.40901 2.29448C6.70282 2.89494 5.17803 4.00008 4.07419 5.44563C2.82333 7.08371 2.16222 9.04151 2.16222 11.1076V12.2513H0.810773C0.36301 12.2513 0 12.6143 0 13.0621V16.3052C0 16.7529 0.36301 17.1159 0.810773 17.1159H1.32453C1.25627 17.5958 1.22086 18.0808 1.22086 18.5664C1.22086 19.3945 1.32091 20.221 1.51825 21.0227C1.60744 21.385 1.9324 21.6397 2.30551 21.6397H4.14278C4.40525 22.2675 4.7461 22.8559 5.16138 23.3985L4.2438 24.9878C4.05727 25.3109 4.11527 25.7196 4.38433 25.978C5.58147 27.1278 7.05167 27.9788 8.63592 28.439C8.99439 28.5431 9.37767 28.3891 9.56425 28.0658L10.4826 26.475C11.1561 26.5611 11.8439 26.5611 12.5172 26.475L13.4357 28.0659C13.5833 28.3216 13.8538 28.4714 14.1378 28.4714C14.213 28.4714 14.2891 28.4609 14.364 28.4391C15.9481 27.9789 17.4183 27.1279 18.6156 25.9781C18.8847 25.7196 18.9427 25.311 18.7561 24.9879L17.8386 23.3985C18.2539 22.856 18.5946 22.2675 18.8572 21.6397H20.6945C21.0676 21.6397 21.3926 21.385 21.4817 21.0227C21.679 20.2212 21.7791 19.3947 21.7791 18.5664C21.7791 18.0807 21.7438 17.5957 21.6755 17.1159H22.1892C22.637 17.1159 23 16.7529 23 16.3051V13.062C23 12.6143 22.637 12.2513 22.1892 12.2513ZM1.62155 13.8729H2.97294C3.4207 13.8729 3.78371 13.5098 3.78371 13.0621V11.1076C3.78371 8.13961 5.51088 5.45087 8.11302 4.1738L7.45592 8.34603C7.38625 8.78834 7.68839 9.2034 8.1307 9.27307C8.1734 9.27977 8.21588 9.28307 8.25783 9.28307C8.64997 9.28307 8.99477 8.99795 9.05774 8.59835L10.031 2.41842H12.9691L13.9424 8.59829C14.0053 8.99795 14.3501 9.28302 14.7423 9.28302C14.7842 9.28302 14.8268 9.27977 14.8695 9.27302C15.3118 9.20334 15.6139 8.78828 15.5442 8.34598L14.8871 4.1738C17.4892 5.45093 19.2162 8.13966 19.2162 11.1075V13.062C19.2162 13.5098 19.5792 13.8728 20.027 13.8728H21.3785V15.4943H1.62155V13.8729ZM13.5284 18.5664C13.5284 19.6848 12.6185 20.5947 11.5001 20.5947C10.3817 20.5947 9.47177 19.6848 9.47177 18.5664C9.47177 18.0129 9.69262 17.4967 10.0847 17.1159H12.9154C13.3075 17.4967 13.5284 18.0129 13.5284 18.5664ZM20.1576 18.5664C20.1576 19.0534 20.1166 19.5395 20.0353 20.0181H18.296C17.9472 20.0181 17.6374 20.2413 17.527 20.5722C17.2546 21.3882 16.8247 22.1305 16.2491 22.7786C16.0172 23.0397 15.9785 23.42 16.1532 23.7224L17.0224 25.2279C16.2717 25.8506 15.4191 26.3446 14.5101 26.6835L13.641 25.1783C13.4666 24.876 13.1182 24.7194 12.7763 24.7894C11.9416 24.9603 11.0585 24.9602 10.2237 24.7894C9.88159 24.7194 9.53339 24.8761 9.35891 25.1783L8.48992 26.6835C7.58078 26.3445 6.72822 25.8506 5.97761 25.2279L6.84681 23.7224C7.0214 23.42 6.98275 23.0397 6.75093 22.7786C6.17533 22.1305 5.74535 21.3881 5.47309 20.5723C5.36261 20.2413 5.0529 20.0182 4.70399 20.0182H2.96473C2.88349 19.5394 2.84241 19.0533 2.84241 18.5664C2.84241 18.0799 2.8843 17.5944 2.96548 17.1159H8.14853C7.95368 17.5661 7.85017 18.0574 7.85017 18.5664C7.85017 20.579 9.4875 22.2163 11.5 22.2163C13.5126 22.2163 15.1499 20.579 15.1499 18.5664C15.1499 18.0574 15.0464 17.5661 14.8515 17.1159H20.0346C20.1157 17.5942 20.1576 18.0798 20.1576 18.5664Z" fill="#F7F7F7"/>
</svg>
