<svg width="28" height="29" viewBox="0 0 28 29" fill="none" xmlns="http://www.w3.org/2000/svg">
<path fill-rule="evenodd" clip-rule="evenodd" d="M18.3602 9L14.0222 0L9.67052 9L4 9L6.62441 15.2998L5.80231 17L0 17L3.218 22.3447L0 29H28L24.7877 22.3353L28 17H22.2161L21.3853 15.2764L24 9L18.3602 9ZM16.5578 9.4745L14.0196 4.20843L11.4683 9.48496L14 10.4978L16.5578 9.4745ZM8.87086 10.6538H6.6511L7.67844 13.1199L8.87086 10.6538ZM9.50093 13.5538L10.7351 11.0014L14 12.3076L9.50093 13.5538ZM8.5349 15.5516L7.66977 17.3409L14 18.6551L20.3476 17.3372L19.4903 15.5586L14 14.038L8.5349 15.5516ZM18.5278 13.5617L14 12.3076L17.2891 10.9917L18.5278 13.5617ZM20.3328 13.0928L19.1573 10.6538H21.3489L20.3328 13.0928ZM21.109 18.917L14 20.3929L6.90613 18.9202L5.39681 22.0417L14 20.3929L22.6163 22.0441L21.109 18.917ZM23.8614 20.4135L24.8951 18.6965H23.0338L23.8614 20.4135ZM23.5359 23.9522L14 22.1247L4.47393 23.9503L2.92022 27.1636H25.0838L23.5359 23.9522ZM4.14594 20.4256L4.98202 18.6965H3.10484L4.14594 20.4256Z" fill="#F7F7F7"/>
</svg>
