<svg width="29" height="23" viewBox="0 0 29 23" fill="none" xmlns="http://www.w3.org/2000/svg">
<path d="M28.5974 8.59371L23.6579 0.422259C23.4394 0.0606377 22.9865 -0.0826757 22.5995 0.087169L19.5807 1.41339L14.9256 0.0346674C14.7095 -0.0293889 14.4767 -0.00397951 14.2795 0.105118L8.91926 3.06966L5.83064 1.09227C5.63954 0.969936 5.4071 0.929887 5.18615 0.981434C4.96515 1.03287 4.77433 1.17142 4.65693 1.3656L0.121436 8.8689C-0.114878 9.25985 0.00392405 9.76793 0.389048 10.0136L2.2975 11.2306L1.91176 11.7453C1.13276 12.7848 1.34468 14.2643 2.38416 15.0433C2.79615 15.3521 3.28622 15.5144 3.792 15.5144C3.83721 15.5144 3.88259 15.5121 3.92802 15.5095C4.04929 16.031 4.34708 16.5143 4.80804 16.8597C5.23086 17.1765 5.72631 17.3294 6.2179 17.3294C6.26221 17.3294 6.30647 17.3281 6.35067 17.3257C6.47564 17.8657 6.78319 18.3399 7.23192 18.6761C7.64391 18.9849 8.13398 19.1472 8.63976 19.1472C8.68497 19.1472 8.73034 19.145 8.77578 19.1423C8.89705 19.6638 9.19484 20.147 9.6558 20.4925C10.0786 20.8093 10.5741 20.9623 11.0657 20.9623C11.7828 20.9623 12.4916 20.6368 12.9537 20.0201L13.0297 19.9186L16.3944 22.3136C16.8279 22.6221 17.3285 22.7705 17.825 22.7705C18.5941 22.7704 19.3528 22.4143 19.8338 21.7461C20.0422 21.4566 20.1788 21.1373 20.2466 20.8094C21.1632 20.9846 22.1425 20.6323 22.7207 19.829C23.0307 19.3984 23.1801 18.8996 23.1807 18.4046C23.8437 18.3248 24.4727 17.9797 24.8913 17.3981C25.1466 17.0435 25.293 16.6423 25.3369 16.2353C26.1258 16.2532 26.9119 15.8971 27.4053 15.2117C27.7896 14.6778 27.9421 14.0269 27.8347 13.3788C27.7272 12.7296 27.372 12.1613 26.8346 11.7788L26.0182 11.1977L28.3265 9.74044C28.714 9.49577 28.8345 8.9859 28.5974 8.59371ZM4.33558 13.5617C4.22777 13.7055 4.07038 13.7988 3.89246 13.8243C3.71426 13.8498 3.53723 13.8045 3.39336 13.6967C3.0963 13.4741 3.03578 13.0515 3.25835 12.7544L4.36161 11.2822C4.58418 10.9852 5.00688 10.9246 5.30389 11.1472C5.60089 11.3697 5.66147 11.7924 5.4389 12.0894L4.33558 13.5617ZM6.75946 15.3781C6.53683 15.675 6.11413 15.7357 5.81718 15.5131C5.52018 15.2905 5.45965 14.8678 5.68217 14.5708L6.78549 13.0986C6.7856 13.0984 6.78571 13.0983 6.78582 13.0981L7.56196 12.0625C7.66977 11.9186 7.82716 11.8253 8.00508 11.7998C8.18323 11.7743 8.36031 11.8196 8.50418 11.9274C8.80119 12.15 8.86177 12.5727 8.63919 12.8697L6.75946 15.3781ZM9.18334 17.1944C9.07553 17.3383 8.91808 17.4316 8.74016 17.4571C8.56229 17.4826 8.38493 17.4374 8.24106 17.3295C8.09718 17.2217 8.0039 17.0642 7.97838 16.8863C7.95286 16.7084 7.99824 16.5311 8.10605 16.3872L9.98578 13.8789C9.98584 13.8788 9.98584 13.8788 9.98589 13.8787L10.3283 13.4218C10.4361 13.2779 10.5936 13.1846 10.7715 13.1591C10.8039 13.1544 10.8362 13.1521 10.8684 13.1521C11.0129 13.1521 11.1529 13.1985 11.2706 13.2867C11.4145 13.3945 11.5078 13.552 11.5333 13.7299C11.5588 13.9078 11.5134 14.0851 11.4056 14.229L9.18334 17.1944ZM12.7104 17.5387L11.6071 19.0109C11.3845 19.3079 10.9618 19.3685 10.6648 19.1459C10.3679 18.9233 10.3073 18.5006 10.5299 18.2036L11.6331 16.7314C11.7409 16.5876 11.8983 16.4943 12.0763 16.4688C12.2542 16.4433 12.4315 16.4886 12.5754 16.5964C12.8724 16.819 12.9329 17.2417 12.7104 17.5387ZM26.1744 13.6539C26.2081 13.8568 26.1602 14.0609 26.0395 14.2285C25.7872 14.5791 25.2947 14.6597 24.9417 14.4083L24.3324 13.9747C24.3323 13.9746 24.3322 13.9746 24.3321 13.9744L24.3321 13.9744L20.9356 11.5597C20.5568 11.2905 20.0316 11.3792 19.7623 11.7579C19.493 12.1367 19.5818 12.662 19.9605 12.9312L23.3506 15.3413C23.6937 15.5907 23.7722 16.0723 23.5254 16.415C23.2731 16.7654 22.7807 16.8461 22.4276 16.5948L22.1613 16.4052C22.1612 16.4052 22.1611 16.4052 22.1611 16.4051C22.161 16.4051 22.1609 16.405 22.1608 16.4049L19.538 14.5402C19.1593 14.271 18.634 14.3597 18.3647 14.7385C18.0955 15.1172 18.1842 15.6425 18.5629 15.9117L21.1796 17.772C21.5231 18.0213 21.6016 18.503 21.3548 18.846C21.1025 19.1964 20.6101 19.277 20.257 19.0257L19.3239 18.3616C19.3238 18.3615 19.3237 18.3614 19.3235 18.3613L17.9111 17.3572C17.5324 17.088 17.0071 17.1767 16.7378 17.5554C16.4686 17.9342 16.5573 18.4595 16.9361 18.7287L18.3239 19.7153C18.6431 19.9729 18.707 20.431 18.4679 20.7631C18.2156 21.1135 17.7231 21.1942 17.37 20.9429L14.0389 18.5718L14.0567 18.548C14.8357 17.5085 14.6238 16.0291 13.5843 15.2501C13.388 15.103 13.176 14.9914 12.9561 14.9138C13.1835 14.4794 13.2696 13.9864 13.1987 13.4916C13.1095 12.8687 12.7829 12.3178 12.2794 11.9404C11.7758 11.563 11.1555 11.4044 10.5326 11.4936C10.4428 11.5064 10.3547 11.5248 10.2683 11.5473C10.1115 11.1759 9.85823 10.8397 9.51304 10.5811C9.00945 10.2036 8.38908 10.0449 7.76619 10.1343C7.45449 10.1789 7.16085 10.283 6.89795 10.4389C6.74819 10.1983 6.55282 9.98068 6.31275 9.8008C5.40912 9.12361 4.17325 9.19563 3.35387 9.90877L1.98619 9.03661L5.65014 2.97515L7.24454 3.9959L6.1898 4.57925C5.93957 4.71768 5.77674 4.97368 5.75756 5.25896C5.71723 5.8574 5.83922 6.45747 6.11037 6.99432C6.94697 8.65075 8.98169 9.32217 10.6458 8.49084L14.5516 6.54026L16.5319 6.56937L24.0237 11.8439C24.0238 11.8439 24.0239 11.844 24.0239 11.844L25.8584 13.1498C26.0285 13.2707 26.1407 13.4498 26.1744 13.6539ZM24.5338 10.1449L17.2885 5.04385C17.1502 4.94648 16.9857 4.89302 16.8165 4.89056L14.3717 4.8546C14.3675 4.85455 14.3634 4.85455 14.3593 4.85455C14.2289 4.85455 14.1001 4.88489 13.9834 4.94323L9.89424 6.9854C9.05629 7.40379 8.03273 7.06757 7.61255 6.23568C7.54238 6.09669 7.49218 5.94934 7.46301 5.79811L14.7854 1.74837L19.398 3.11453C19.5886 3.17102 19.7932 3.15812 19.9753 3.07813L22.5999 1.92517L26.7303 8.75823L24.5338 10.1449Z" fill="#F7F7F7"/>
</svg>
