<svg width="28" height="28" viewBox="0 0 28 28" fill="none" xmlns="http://www.w3.org/2000/svg">
<g clip-path="url(#clip0)">
<path d="M19.2853 3.15163L19.2146 3.22234L19.2853 3.15163C18.1801 2.04661 16.3824 2.04661 15.2773 3.15163L15.348 3.22234L15.2773 3.15163L14 4.42886L12.7228 3.15163C11.6152 2.0441 9.82254 2.04387 8.71478 3.15163L2.79451 9.07185H0.546875C0.189662 9.07185 -0.1 9.36151 -0.1 9.71873V11.9062C-0.1 12.6786 0.40564 13.3342 1.10271 13.5613L3.00627 22.1274C3.18427 22.9297 3.88341 23.4906 4.70531 23.4906H5.44331C5.73676 24.7428 6.86244 25.6781 8.20312 25.6781C9.54381 25.6781 10.6695 24.7428 10.9629 23.4906H17.0371C17.3305 24.7428 18.4562 25.6781 19.7969 25.6781C21.1376 25.6781 22.2632 24.7428 22.5567 23.4906H23.2947C24.1166 23.4906 24.8157 22.9297 24.9937 22.1276C24.9937 22.1276 24.9937 22.1276 24.9937 22.1276L26.8973 13.5613C27.5944 13.3342 28.1 12.6786 28.1 11.9062V9.71873C28.1 9.36145 27.8103 9.07185 27.4531 9.07185H25.2055L19.2853 3.15163ZM23.7307 21.8472L23.7307 21.8472C23.6859 22.0494 23.502 22.1968 23.2947 22.1968H22.5567C22.2632 20.9447 21.1376 20.0093 19.7969 20.0093C18.4562 20.0093 17.3305 20.9447 17.0371 22.1968H10.9629C10.6695 20.9447 9.54381 20.0093 8.20312 20.0093C6.86244 20.0093 5.73676 20.9447 5.44331 22.1968H4.70531C4.49802 22.1968 4.31415 22.0494 4.26924 21.847L4.26924 21.847L2.44702 13.6469H25.553L23.7307 21.8472ZM16.1921 4.06644C16.7926 3.46593 17.7699 3.46593 18.3704 4.06644L23.3758 9.0718H18.6429L14.9148 5.34367L16.1921 4.06645L16.1214 3.99573L16.1921 4.06644ZM9.62959 4.06644C10.2301 3.46593 11.2074 3.46593 11.8079 4.06644L16.8133 9.0718H4.62424L9.62959 4.06644ZM8.20312 24.3843C7.35371 24.3843 6.6625 23.6931 6.6625 22.8437C6.6625 21.9943 7.35371 21.3031 8.20312 21.3031C9.05254 21.3031 9.74375 21.9943 9.74375 22.8437C9.74375 23.6931 9.05254 24.3843 8.20312 24.3843ZM19.7969 24.3843C18.9475 24.3843 18.2563 23.6931 18.2563 22.8437C18.2563 21.9943 18.9475 21.3031 19.7969 21.3031C20.6463 21.3031 21.3375 21.9943 21.3375 22.8437C21.3375 23.6931 20.6463 24.3843 19.7969 24.3843ZM26.8062 11.9062C26.8062 12.1525 26.6057 12.3531 26.3594 12.3531H1.64062C1.39431 12.3531 1.19375 12.1525 1.19375 11.9062V10.3656H26.8062V11.9062Z" fill="#F7F7F7" stroke="#F7F7F7" stroke-width="0.2"/>
</g>
<defs>
<clipPath id="clip0">
<rect width="28" height="28" fill="white"/>
</clipPath>
</defs>
</svg>
