<svg width="26" height="28" viewBox="0 0 26 28" fill="none" xmlns="http://www.w3.org/2000/svg">
<path d="M25.7453 14.6104L25.7178 14.5583L23.0782 10.9396C23.0181 8.04475 21.8259 5.33132 19.7057 3.27655C17.5295 1.16736 14.6348 0.00371875 11.5551 0C11.5501 0 11.5455 0 11.5404 0C8.46095 0 5.56524 1.15992 3.38596 3.26676C1.20313 5.37709 0.000976562 8.18387 0.000976562 11.1701C0.000976562 12.5227 0.358323 14.1255 1.06307 15.9342C2.20918 18.8758 2.69816 21.408 2.69816 24.4014V28H16.2109V24.2915H19.5808C20.8735 24.2915 22.1032 23.7515 22.9545 22.8099C23.8058 21.8684 24.1958 20.617 24.0245 19.3768L23.8328 17.9887L24.4758 17.7587C25.1012 17.535 25.5989 17.0619 25.8414 16.4607C26.0837 15.8594 26.0488 15.185 25.7453 14.6104ZM24.2617 15.8638C24.2227 15.9605 24.1223 16.1353 23.888 16.2191L21.9721 16.9044L22.3437 19.5943C22.4502 20.3655 22.2077 21.1435 21.6784 21.7289C21.1491 22.3144 20.3845 22.6501 19.5808 22.6501H14.5152V26.3586H4.39382V24.4014C4.39382 21.1983 3.87218 18.4929 2.64963 15.355C2.01726 13.7321 1.69663 12.3241 1.69663 11.1702C1.69663 8.62274 2.72212 6.22836 4.58421 4.42816C6.44337 2.6308 8.91333 1.64145 11.5404 1.64145H11.553C14.1801 1.64462 16.6494 2.63725 18.506 4.43652C20.3625 6.2358 21.3849 8.62717 21.3849 11.1702V11.464L24.2559 15.3999C24.3427 15.598 24.2981 15.7735 24.2617 15.8638Z" fill="#F7F7F7"/>
</svg>
