<svg width="31" height="26" viewBox="0 0 31 26" fill="none" xmlns="http://www.w3.org/2000/svg">
<path d="M9.54967 16.8438C10.1967 17.3553 10.5677 18.1126 10.5677 18.9216V22.0154L12.0522 25.0985H18.7462L20.2307 22.0154V18.9293C20.2307 18.1161 20.6033 17.3547 21.253 16.8403C23.5306 15.0374 24.8368 12.3392 24.8368 9.43774C24.8368 4.23378 20.6031 0 15.3991 0C15.2776 0 15.1542 0.00239747 15.0325 0.00695268C12.5876 0.0998948 10.3018 1.13065 8.59596 2.90941C6.89119 4.68714 5.95554 7.01381 5.96145 9.46083C5.96849 12.3553 7.27631 15.0463 9.54967 16.8438ZM17.2396 22.701H13.5586L12.9651 21.4684V20.1203H17.833V21.4684L17.2396 22.701ZM10.3264 4.56887C11.5996 3.24123 13.3032 2.47188 15.1235 2.40275C15.2151 2.39931 15.3078 2.39747 15.3991 2.39747C19.2811 2.39747 22.4393 5.55575 22.4393 9.43766C22.4393 11.602 21.4645 13.615 19.7649 14.9605C18.8634 15.6741 18.2457 16.6441 17.9803 17.7228H12.8195C12.5552 16.6449 11.938 15.6756 11.0367 14.963C9.34021 13.6216 8.36428 11.6141 8.35901 9.45508C8.35453 7.6318 9.05324 5.89643 10.3264 4.56887Z" fill="#F7F7F7"/>
<path d="M0 8.25879H3.56377V10.6563H0V8.25879Z" fill="#F7F7F7"/>
<path d="M1.46387 2.79688L2.6626 0.720662L5.74882 2.50255L4.55009 4.57876L1.46387 2.79688Z" fill="#F7F7F7"/>
<path d="M1.46484 16.1191L4.55106 14.3373L5.7498 16.4135L2.66358 18.1954L1.46484 16.1191Z" fill="#F7F7F7"/>
<path d="M27.2339 8.25879H30.7977V10.6563H27.2339V8.25879Z" fill="#F7F7F7"/>
<path d="M25.0469 2.50391L28.1331 0.722024L29.3318 2.79824L26.2456 4.58012L25.0469 2.50391Z" fill="#F7F7F7"/>
<path d="M25.0469 16.4141L26.2456 14.3378L29.3318 16.1197L28.1331 18.1959L25.0469 16.4141Z" fill="#F7F7F7"/>
</svg>
