<svg width="23" height="23" viewBox="0 0 23 23" fill="none" xmlns="http://www.w3.org/2000/svg">
<path d="M9.85697 19.7143C11.9828 19.7143 13.9476 19.0309 15.5592 17.8825L20.1953 22.5186C20.5156 22.839 20.9362 23 21.3568 23C21.7773 23 22.1979 22.839 22.5182 22.5186C23.1606 21.8763 23.1606 20.838 22.5182 20.1956L17.8822 15.5595C19.0305 13.9479 19.7139 11.983 19.7139 9.85714C19.7139 4.42093 15.2931 0 9.85697 0C4.42085 0 0 4.42093 0 9.85714C0 15.2934 4.42085 19.7143 9.85697 19.7143ZM9.85697 3.28571C13.481 3.28571 16.4283 6.233 16.4283 9.85714C16.4283 13.4813 13.481 16.4286 9.85697 16.4286C6.23289 16.4286 3.28566 13.4813 3.28566 9.85714C3.28566 6.233 6.23289 3.28571 9.85697 3.28571Z" fill="#F7F7F7"/>
</svg>
