<svg width="29" height="25" viewBox="0 0 29 25" fill="none" xmlns="http://www.w3.org/2000/svg">
<path d="M25.7109 4.50783C25.7109 9.97294 25.7109 15.4242 25.7109 20.8894C25.7109 21.6622 25.7109 22.4489 25.7109 23.2217C26.1663 22.7663 26.6355 22.297 27.091 21.8416C24.2066 21.8416 21.3222 21.8416 18.4379 21.8416C13.8146 21.8416 9.19135 21.8416 4.56809 21.8416C3.50543 21.8416 2.45657 21.8416 1.39391 21.8416C1.84934 22.297 2.31856 22.7663 2.77399 23.2217C2.77399 16.8319 2.77399 10.456 2.77399 4.06621C2.77399 3.18296 2.77399 2.28591 2.77399 1.40266C2.31856 1.85808 1.84934 2.32731 1.39391 2.78273C3.90565 2.78273 6.43119 2.78273 8.94294 2.78273C8.61172 2.64473 8.2943 2.50672 7.96308 2.38251C9.08095 3.27956 10.1988 4.16281 11.3167 5.05986C11.7997 5.44629 12.2275 5.87411 12.8762 5.90171C13.1936 5.91551 13.511 5.90171 13.8284 5.90171C17.1958 5.90171 20.577 5.90171 23.9444 5.90171C24.9932 5.90171 26.0283 5.90171 27.0772 5.90171C28.8575 5.90171 28.8575 3.14156 27.0772 3.14156C22.9093 3.14156 18.7553 3.14156 14.5875 3.14156C14.0078 3.14156 13.4144 3.14156 12.8348 3.14156C13.166 3.27956 13.4834 3.41757 13.8146 3.54178C12.5173 2.50672 11.2201 1.45786 9.90899 0.4228C9.19135 -0.143032 8.2115 0.022578 7.34205 0.022578C6.14138 0.022578 4.94071 0.022578 3.75385 0.022578C2.9672 0.022578 0.786676 0.022578 3.11201e-05 0.022578C3.15919e-05 0.931631 3.11201e-05 0.657414 3.11201e-05 1.40266C3.11201e-05 7.79242 3.11201e-05 14.1684 3.11201e-05 20.5581C3.11201e-05 21.4414 3.11201e-05 22.3384 3.11201e-05 23.2217C3.11201e-05 23.9669 3.11201e-05 24.1526 0 24.6018C2.88436 24.6018 7.14884 24.6018 10.0332 24.6018C14.6565 24.6018 19.2797 24.6018 23.903 24.6018C24.9656 24.6018 27.3946 24.6018 28.4572 24.6018C28.4572 23.9605 28.4572 23.9669 28.4572 23.2217C28.4572 17.7566 28.4572 12.3053 28.4572 6.84016C28.4572 6.06732 28.4572 5.28068 28.4572 4.50783C28.471 2.72753 25.7109 2.72753 25.7109 4.50783Z" fill="#F7F7F7"/>
</svg>
