<svg width="24" height="29" viewBox="0 0 24 29" fill="none" xmlns="http://www.w3.org/2000/svg">
<path fill-rule="evenodd" clip-rule="evenodd" d="M19.6235 24.8611C20.4357 24.9707 21.1848 25.3585 21.7433 25.9582C22.0628 26.3624 22.547 26.6017 23.0621 26.6101V28.3841C22.1015 28.3786 21.1868 27.9718 20.5394 27.262C20.2198 26.8577 19.7356 26.6184 19.2205 26.6101C19.0324 26.6086 18.8458 26.6436 18.671 26.7135C18.6673 26.7152 18.6641 26.7178 18.661 26.7205C18.6576 26.7233 18.6543 26.7262 18.6502 26.7279C18.3746 26.8664 18.1244 27.0503 17.91 27.2718C17.2561 27.9758 16.3405 28.3783 15.3798 28.384C14.4191 28.3786 13.5045 27.9716 12.8574 27.2614C12.7684 27.1452 12.6644 27.0412 12.5482 26.9523C11.8193 26.3944 10.776 26.533 10.218 27.2619C9.57028 27.9718 8.65523 28.3787 7.69427 28.384C6.73299 28.3783 5.81671 27.976 5.16189 27.2723C4.94557 27.0491 4.69299 26.8643 4.41481 26.7257C4.41094 26.7241 4.4078 26.7214 4.40466 26.7188C4.40168 26.7163 4.39869 26.7138 4.39507 26.7121C4.22078 26.6432 4.03484 26.6085 3.84746 26.61C3.33112 26.6183 2.8457 26.8577 2.52472 27.2623C1.87655 27.9721 0.961272 28.3788 9.59e-05 28.384V26.61C0.516219 26.6017 1.00141 26.3624 1.32239 25.9582C1.88009 25.3593 2.62784 24.9718 3.43866 24.8614L0.0516528 15.3774L0.0461091 15.3612C-0.109449 14.8962 0.141351 14.393 0.606472 14.2375L2.76942 13.5164L4.4494 4.27645C4.52602 3.85468 4.89335 3.548 5.3221 3.548H8.8701V0.887001C8.8701 0.397155 9.26726 0 9.7571 0H13.3051C13.795 0 14.1921 0.397155 14.1921 0.887001V3.548H17.7401C18.1688 3.548 18.5362 3.85457 18.6128 4.27645L20.2928 13.5164L22.4557 14.2375L22.4719 14.243C22.9339 14.4075 23.1751 14.9154 23.0106 15.3774L19.6235 24.8611ZM12.4181 1.774H10.6441V3.548H12.4181V1.774ZM9.01479 25.9582C9.46362 25.4897 10.0243 25.1434 10.6441 24.9517V12.7617L2.027 15.6338L5.46269 25.2531C5.79188 25.4526 6.09712 25.6892 6.37242 25.9582C6.46123 26.0739 6.56479 26.1776 6.68054 26.2663C7.41021 26.8258 8.45532 26.6879 9.01479 25.9582ZM4.68878 12.8767L11.2505 10.6895C11.4326 10.6288 11.6296 10.6288 11.8117 10.6895L18.3734 12.8767L16.9999 5.322H6.0623L4.68878 12.8767ZM16.6981 25.9586C16.9706 25.6922 17.2724 25.4575 17.5977 25.2589L21.0353 15.6338L12.4182 12.7617V24.9467C13.0439 25.1368 13.6099 25.4854 14.0614 25.9586C14.1505 26.0752 14.2548 26.1794 14.3713 26.2685C15.0994 26.8255 16.1412 26.6867 16.6981 25.9586ZM7.9834 7.09595H15.0794V8.86995H7.9834V7.09595Z" fill="#F7F7F7"/>
</svg>
